<svg width="50" height="50" viewBox="0 0 50 50" fill="none" xmlns="http://www.w3.org/2000/svg">
<path d="M9.00819 11.0003C9.00696 11.0003 9.00557 11.0003 9.00433 11.0003C8.57104 11.0003 8.16351 11.1354 7.85579 11.381C7.54466 11.6293 7.37329 11.9599 7.37329 12.3118V31.9775C7.37329 32.6986 8.10953 33.2868 9.01467 33.2886C12.8305 33.2959 19.2236 33.9321 23.6339 37.6244V17.0437C23.6339 16.7993 23.5558 16.5696 23.4085 16.3796C19.7887 11.716 12.8327 11.0075 9.00819 11.0003Z" fill="#FFCC73"/>
<path d="M42.4394 31.9773V12.3115C42.4394 11.9596 42.268 11.629 41.9569 11.3807C41.6492 11.1351 41.2413 11 40.8085 11C40.8071 11 40.8057 11 40.8045 11C36.9802 11.0073 30.0241 11.7158 26.4042 16.3794C26.2569 16.5694 26.179 16.7991 26.179 17.0435V37.6241C30.5893 33.9318 36.9823 33.2956 40.7982 33.2883C41.7032 33.2864 42.4394 32.6983 42.4394 31.9773Z" fill="#FFCC73"/>
<path d="M46.1731 15.5353H44.9845V31.9773C44.9845 33.8186 43.1093 35.32 40.8042 35.3245C37.5675 35.3307 32.2308 35.837 28.4512 38.6988C34.988 37.4184 41.879 38.2507 45.8062 38.9667C46.2965 39.056 46.8033 38.9637 47.1961 38.7132C47.5876 38.4633 47.8122 38.0898 47.8122 37.6889V16.8466C47.8124 16.1236 47.0769 15.5353 46.1731 15.5353Z" fill="#FFCC73"/>
<path d="M4.82772 31.9773V15.5353H3.63906C2.73547 15.5353 2 16.1236 2 16.8466V37.6885C2 38.0896 2.22459 38.463 2.61608 38.7129C3.00864 38.9632 3.51489 39.0559 4.00602 38.9663C7.93324 38.2502 14.8244 37.418 21.3609 38.6984C17.5814 35.8368 12.2447 35.3306 9.00805 35.3244C6.70309 35.32 4.82772 33.8186 4.82772 31.9773Z" fill="#FFCC73"/>
</svg>
