<svg width="50" height="50" viewBox="0 0 50 50" fill="none" xmlns="http://www.w3.org/2000/svg">
<path d="M25.3867 34.1328C27.3801 34.1328 28.9961 32.5168 28.9961 30.5234C28.9961 28.53 27.3801 26.9141 25.3867 26.9141C23.3933 26.9141 21.7773 28.53 21.7773 30.5234C21.7773 32.5168 23.3933 34.1328 25.3867 34.1328Z" fill="#FFCC73"/>
<path d="M15.2695 22.1562L17.2828 37.3376C17.4085 38.2853 18.2242 39 19.1803 39H31.593C32.5491 39 33.3648 38.2853 33.4905 37.3376L35.5037 22.1562H15.2695ZM25.3867 25.2734C28.2816 25.2734 30.6367 27.6285 30.6367 30.5234C30.6367 33.4183 28.2816 35.7734 25.3867 35.7734C22.4918 35.7734 20.1366 33.4183 20.1366 30.5234C20.1366 27.6285 22.4918 25.2734 25.3867 25.2734Z" fill="#FFCC73"/>
<path d="M35.2853 15.1015V14.4925C35.2853 13.5007 34.5408 12.6816 33.5536 12.5872L17.0405 11.0062C16.6579 10.9695 16.2751 11.0969 15.9906 11.3554C15.7062 11.614 15.543 11.9827 15.543 12.3671V15.1015H35.2853Z" fill="#FFCC73"/>
<path d="M37.2267 16.7421H13.5469C13.2448 16.7421 13 16.987 13 17.289V19.9687C13 20.2707 13.2448 20.5156 13.5469 20.5156H15.8796H34.894H37.2267C37.5288 20.5156 37.7736 20.2707 37.7736 19.9687V17.289C37.7736 16.987 37.5287 16.7421 37.2267 16.7421V16.7421Z" fill="#FFCC73"/>
</svg>
