<svg width="50" height="50" viewBox="0 0 50 50" fill="none" xmlns="http://www.w3.org/2000/svg">
<path d="M30.2191 27.3506C28.9304 27.3506 27.885 28.7958 27.885 30.5799C27.885 32.3644 28.9304 33.8103 30.2191 33.8103C31.5071 33.8103 32.5517 32.3644 32.5517 30.5799C32.5521 28.7958 31.5071 27.3506 30.2191 27.3506ZM38.343 18.9448C38.6087 18.2893 38.622 14.565 37.2051 11C37.2051 11 33.9538 11.3565 29.0348 14.7319C28.0038 14.4472 26.2578 14.3047 24.5128 14.3047C22.7678 14.3047 21.0225 14.4469 19.9905 14.7315C15.0714 11.3565 11.8213 11 11.8213 11C10.4041 14.565 10.4166 18.2893 10.6826 18.9448C9.01733 20.753 8 22.9244 8 25.8913C8 38.79 18.7007 38.9968 21.4019 38.9968C22.0133 38.9968 23.2284 38.9982 24.5128 39C25.7972 38.9982 27.0131 38.9968 27.6237 38.9968C30.325 38.9968 41.0256 38.79 41.0256 25.8913C41.0256 22.9244 40.0083 20.753 38.343 18.9448ZM24.5634 37.4112H24.4626C17.6927 37.4112 12.4208 36.6028 12.4208 30.0235C12.4208 28.4479 12.9768 26.9848 14.2978 25.7707C16.5023 23.7475 20.2306 24.8191 24.4626 24.8191C24.4787 24.8191 24.4959 24.8187 24.5132 24.818C24.5308 24.8187 24.5476 24.8191 24.5638 24.8191C28.7957 24.8191 32.5251 23.7479 34.7285 25.7707C36.0495 26.9848 36.6056 28.4479 36.6056 30.0235C36.6052 36.6028 31.3333 37.4112 24.5634 37.4112ZM18.8066 27.3506C17.5186 27.3506 16.4739 28.7958 16.4739 30.5799C16.4739 32.3644 17.5186 33.8103 18.8066 33.8103C20.096 33.8103 21.1406 32.3644 21.1406 30.5799C21.1403 28.7958 20.0956 27.3506 18.8066 27.3506Z" fill="#FFCC73"/>
</svg>
