<svg width="120" height="50" viewBox="0 0 120 50" fill="none" xmlns="http://www.w3.org/2000/svg">
<path d="M29.2177 32.028C29.2177 33.636 30.0217 34.44 31.6297 34.44C33.7897 34.44 36.3937 32.88 39.4417 29.76C42.2017 26.976 44.3017 24.144 45.7417 21.264C47.2057 18.36 47.9377 16.152 47.9377 14.64C47.9377 14.4 47.9137 14.16 47.8657 13.92C47.3377 13.92 46.7977 13.644 46.2457 13.092V13.128C45.8857 12.84 45.7057 12.552 45.7057 12.264C45.7057 11.952 45.8257 11.7 46.0657 11.508C46.3057 11.316 46.6177 11.22 47.0017 11.22C47.3857 11.22 47.6497 11.376 47.7937 11.688C47.9617 11.976 48.1657 12.24 48.4057 12.48C48.6457 12.72 48.7537 12.888 48.7297 12.984C48.8737 13.2 49.0897 13.308 49.3777 13.308C49.6897 13.308 50.0377 13.164 50.4217 12.876C50.8057 12.588 51.1057 12.444 51.3217 12.444C51.5617 12.444 51.6817 12.516 51.6817 12.66C51.6817 12.924 51.4537 13.176 50.9977 13.416C50.7577 13.608 50.4697 13.716 50.1337 13.74H48.9817C49.2697 14.724 49.4137 15.432 49.4137 15.864C49.4137 17.784 48.4897 20.28 46.6417 23.352C44.8177 26.424 42.4657 29.148 39.5857 31.524C36.6817 33.972 34.0417 35.196 31.6657 35.196C29.3137 35.196 28.1377 34.044 28.1377 31.74C28.1377 29.916 28.9057 27.312 30.4417 23.928L33.0337 18.276L29.5057 21.012C28.4017 21.924 27.2737 22.932 26.1217 24.036C24.9937 25.116 23.0137 27.36 20.1817 30.768L16.0057 35.88C15.3337 36.648 14.7337 37.032 14.2057 37.032C13.7977 37.032 13.5937 36.768 13.5937 36.24C13.5937 35.712 13.8097 35.028 14.2417 34.188L21.1897 24.18C25.3897 18.012 27.4897 14.1 27.4897 12.444C27.4897 11.532 26.6497 11.076 24.9697 11.076C22.9297 11.076 20.0857 12.324 16.4377 14.82C14.4697 16.164 12.7417 17.856 11.2537 19.896C9.76569 21.912 9.02169 23.592 9.02169 24.936C9.02169 26.256 9.90969 26.916 11.6857 26.916C13.3417 26.916 15.0457 26.148 16.7977 24.612C17.4217 24.084 17.7817 23.82 17.8777 23.82C17.9737 23.82 18.0097 23.904 17.9857 24.072C17.7217 24.984 16.7377 25.86 15.0337 26.7C13.3537 27.516 11.8657 27.924 10.5697 27.924C10.2337 27.924 10.0057 27.912 9.88569 27.888H9.84969C7.92969 27.48 6.96969 26.532 6.96969 25.044C6.96969 23.556 7.79769 21.768 9.45369 19.68C12.3817 15.984 16.1497 13.236 20.7577 11.436C23.1337 10.524 25.0897 10.068 26.6257 10.068C28.5217 10.068 29.4697 10.692 29.4697 11.94C29.4697 14.532 26.2057 20.16 19.6777 28.824C17.4937 31.728 16.3897 33.18 16.3657 33.18C16.4377 33.18 17.6857 31.824 20.1097 29.112C22.5577 26.4 24.8737 24.084 27.0577 22.164C27.8977 21.42 29.3497 20.052 31.4137 18.06C32.4937 17.052 33.6577 16.14 34.9057 15.324C35.2177 15.132 35.6617 15.036 36.2377 15.036C36.8377 15.036 37.2457 15.204 37.4617 15.54C35.2537 18.276 33.3217 21.348 31.6657 24.756C30.0337 28.14 29.2177 30.564 29.2177 32.028ZM50.1337 13.74H50.1697H50.1337ZM55.0933 18.312C55.4533 18.312 55.7893 18.432 56.1013 18.672C56.4373 18.888 56.6053 19.152 56.6053 19.464C56.6053 19.776 56.4493 20.052 56.1373 20.292C55.8493 20.508 55.5253 20.616 55.1653 20.616C54.8053 20.616 54.4693 20.484 54.1573 20.22C53.8693 19.956 53.7253 19.656 53.7253 19.32C53.7253 18.648 54.1813 18.312 55.0933 18.312ZM48.5773 33.396C47.3533 33.396 46.7412 32.604 46.7412 31.02C46.7412 29.724 47.4493 27.936 48.8653 25.656C50.2813 23.352 51.4213 22.188 52.2853 22.164C52.5253 22.164 52.7893 22.26 53.0773 22.452C53.3893 22.644 53.5453 22.836 53.5453 23.028C53.4253 23.196 53.2813 23.388 53.1133 23.604C52.9453 23.796 52.7653 24.012 52.5732 24.252C52.3813 24.492 52.1173 24.84 51.7812 25.296C51.4453 25.728 51.1213 26.148 50.8093 26.556C49.0093 28.884 48.1093 30.492 48.1093 31.38C48.1093 32.244 48.4093 32.676 49.0093 32.676C49.5133 32.676 50.1973 32.4 51.0613 31.848C53.0773 30.6 54.6733 29.232 55.8493 27.744C56.2813 27.192 56.5693 26.916 56.7133 26.916C56.8813 26.916 56.9653 27.012 56.9653 27.204C56.9653 27.396 56.6893 27.78 56.1373 28.356C55.5853 28.932 55.1413 29.388 54.8053 29.724C54.4933 30.06 54.2773 30.288 54.1573 30.408C54.0373 30.504 53.8093 30.708 53.4733 31.02C53.1613 31.308 52.9213 31.512 52.7533 31.632C52.5853 31.752 52.3453 31.932 52.0332 32.172C51.7213 32.412 51.4453 32.592 51.2053 32.712C50.9653 32.808 50.6893 32.928 50.3773 33.072C49.8733 33.288 49.2733 33.396 48.5773 33.396ZM61.1983 21.624C61.8463 21.624 62.1703 21.876 62.1703 22.38C62.1703 22.524 62.1343 22.668 62.0623 22.812C59.9023 25.812 58.6063 28.08 58.1743 29.616C63.7663 24.024 67.1623 21.228 68.3623 21.228C68.4823 21.204 68.5903 21.192 68.6863 21.192C69.3583 21.192 69.6943 21.492 69.6943 22.092C69.6943 22.212 69.6703 22.332 69.6223 22.452C69.5743 22.572 69.0943 23.22 68.1823 24.396C67.1263 25.644 66.2263 26.844 65.4823 27.996C64.7623 29.148 64.4023 30.108 64.4023 30.876C64.4023 31.644 64.5703 32.028 64.9063 32.028C65.9623 32.028 67.7983 30.576 70.4143 27.672C70.4623 27.624 70.5463 27.516 70.6663 27.348C71.0263 26.916 71.2423 26.7 71.3143 26.7C71.3863 26.7 71.4223 26.82 71.4223 27.06C71.4223 27.3 71.2543 27.612 70.9183 27.996C67.9423 31.38 65.8303 33.072 64.5823 33.072C63.4063 33.072 62.8183 32.424 62.8183 31.128C62.8183 29.832 63.2983 28.344 64.2583 26.664L66.5623 22.92C64.9303 24.12 63.4783 25.44 62.2063 26.88C60.9343 28.296 59.7703 29.676 58.7143 31.02C57.6823 32.364 57.0823 33.036 56.9143 33.036C56.5543 33.036 56.2663 32.892 56.0503 32.604C55.8583 32.292 55.7623 31.92 55.7623 31.488C55.7623 31.032 55.9183 30.432 56.2303 29.688C56.5423 28.944 56.9383 28.044 57.4183 26.988L55.2583 29.256C54.7303 29.784 54.4063 30.048 54.2863 30.048C54.1423 30.048 54.0703 29.976 54.0703 29.832C54.0703 29.664 54.1663 29.484 54.3583 29.292C55.2463 28.404 56.0143 27.552 56.6623 26.736C57.2863 25.92 58.5703 24.36 60.5143 22.056C60.7303 21.768 60.9583 21.624 61.1983 21.624ZM72.6579 33.468C72.3939 33.468 72.1539 33.432 71.9379 33.36C70.4019 32.928 69.6339 32.064 69.6339 30.768C69.6339 29.088 70.6899 27.144 72.8019 24.936C74.9139 22.728 76.8099 21.624 78.4899 21.624C79.0419 21.624 79.4859 21.78 79.8219 22.092C80.1819 22.38 80.3619 22.788 80.3619 23.316C80.3619 23.82 80.2059 24.36 79.8939 24.936C79.5819 25.488 79.1139 25.764 78.4899 25.764C77.8659 25.764 77.5539 25.572 77.5539 25.188C77.5539 24.924 77.7099 24.528 78.0219 24C78.3579 23.448 78.5259 23.16 78.5259 23.136C78.5259 23.088 78.4899 23.064 78.4179 23.064C77.7459 23.136 76.8219 23.616 75.6459 24.504C74.4939 25.392 73.7019 26.136 73.2699 26.736L71.8659 28.788C71.6259 29.172 71.4459 29.628 71.3259 30.156C71.2299 30.684 71.1819 31.08 71.1819 31.344C71.1819 31.608 71.3259 31.908 71.6139 32.244C71.9259 32.58 72.3579 32.748 72.9099 32.748C74.1099 32.748 75.5979 32.052 77.3739 30.66C79.1499 29.244 80.5179 27.9 81.4779 26.628C81.5979 26.484 81.7419 26.412 81.9099 26.412C82.0779 26.412 82.1619 26.46 82.1619 26.556C82.1619 26.652 82.1019 26.772 81.9819 26.916C80.6619 28.668 79.0779 30.204 77.2299 31.524C75.4059 32.82 73.8819 33.468 72.6579 33.468ZM81.9532 33.468C81.6892 33.468 81.4492 33.432 81.2332 33.36C79.6972 32.928 78.9292 32.064 78.9292 30.768C78.9292 29.088 79.9852 27.144 82.0972 24.936C84.2092 22.728 86.1052 21.624 87.7852 21.624C88.3372 21.624 88.7812 21.78 89.1172 22.092C89.4772 22.38 89.6572 22.74 89.6572 23.172C89.6572 24.516 88.6372 25.8 86.5972 27.024C84.5812 28.248 82.9372 28.86 81.6652 28.86C81.4732 28.86 81.3052 28.836 81.1612 28.788C80.8012 29.436 80.6212 30.12 80.6212 30.84C80.6212 32.088 81.2092 32.712 82.3852 32.712C83.5852 32.712 85.1332 31.908 87.0292 30.3C88.4932 29.124 89.7412 27.876 90.7732 26.556C90.9892 26.268 91.1692 26.124 91.3132 26.124C91.4812 26.124 91.5652 26.196 91.5652 26.34C91.5652 26.484 91.4692 26.688 91.2772 26.952C89.9812 28.656 88.4212 30.168 86.5972 31.488C84.7732 32.808 83.2252 33.468 81.9532 33.468ZM88.7572 23.1C88.7572 22.812 88.4452 22.668 87.8212 22.668C87.2212 22.668 86.3572 23.136 85.2292 24.072C83.7172 25.32 82.5412 26.628 81.7012 27.996C81.8452 28.044 82.0012 28.068 82.1692 28.068C83.0812 28.068 84.2932 27.588 85.8052 26.628C87.3412 25.644 88.3012 24.576 88.6852 23.424C88.7332 23.304 88.7572 23.196 88.7572 23.1ZM95.1593 21.624C95.8073 21.624 96.1313 21.876 96.1313 22.38C96.1313 22.524 96.0953 22.668 96.0233 22.812C93.8633 25.812 92.5673 28.08 92.1353 29.616C97.7273 24.024 101.123 21.228 102.323 21.228C102.443 21.204 102.551 21.192 102.647 21.192C103.319 21.192 103.655 21.492 103.655 22.092C103.655 22.212 103.631 22.332 103.583 22.452C103.535 22.572 103.055 23.22 102.143 24.396C101.087 25.644 100.187 26.844 99.4433 27.996C98.7233 29.148 98.3633 30.108 98.3633 30.876C98.3633 31.644 98.5313 32.028 98.8673 32.028C99.9233 32.028 101.759 30.576 104.375 27.672C104.423 27.624 104.507 27.516 104.627 27.348C104.987 26.916 105.203 26.7 105.275 26.7C105.347 26.7 105.383 26.82 105.383 27.06C105.383 27.3 105.215 27.612 104.879 27.996C101.903 31.38 99.7913 33.072 98.5433 33.072C97.3673 33.072 96.7793 32.424 96.7793 31.128C96.7793 29.832 97.2593 28.344 98.2193 26.664L100.523 22.92C98.8913 24.12 97.4393 25.44 96.1673 26.88C94.8953 28.296 93.7313 29.676 92.6753 31.02C91.6433 32.364 91.0433 33.036 90.8753 33.036C90.5153 33.036 90.2273 32.892 90.0113 32.604C89.8193 32.292 89.7233 31.92 89.7233 31.488C89.7233 31.032 89.8793 30.432 90.1913 29.688C90.5033 28.944 90.8993 28.044 91.3793 26.988L89.2193 29.256C88.6913 29.784 88.3673 30.048 88.2473 30.048C88.1033 30.048 88.0313 29.976 88.0313 29.832C88.0313 29.664 88.1273 29.484 88.3193 29.292C89.2073 28.404 89.9753 27.552 90.6233 26.736C91.2473 25.92 92.5313 24.36 94.4753 22.056C94.6913 21.768 94.9193 21.624 95.1593 21.624ZM113.279 21.408L118.463 21.336C118.535 21.384 118.571 21.42 118.571 21.444C118.571 21.66 117.071 21.96 114.071 22.344C111.095 22.728 109.487 22.956 109.247 23.028C108.791 23.436 107.951 24.66 106.727 26.7C105.503 28.716 104.891 30.192 104.891 31.128C104.891 32.016 105.503 32.46 106.727 32.46C107.303 32.46 108.059 32.28 108.995 31.92C109.931 31.56 110.651 31.224 111.155 30.912C112.499 30.072 113.939 28.836 115.475 27.204C115.811 26.868 116.039 26.7 116.159 26.7C116.231 26.7 116.267 26.772 116.267 26.916C116.267 27.06 116.087 27.348 115.727 27.78C114.479 29.316 113.075 30.552 111.515 31.488C109.643 32.64 107.855 33.216 106.151 33.216C105.407 33.216 104.795 33.06 104.315 32.748C103.859 32.412 103.631 31.752 103.631 30.768C103.631 29.784 104.063 28.44 104.927 26.736C105.791 25.008 106.451 23.724 106.907 22.884C106.571 22.956 106.283 22.992 106.043 22.992C105.347 22.992 104.999 22.716 104.999 22.164C104.999 21.756 105.287 21.468 105.863 21.3C105.935 21.3 106.043 21.288 106.187 21.264H108.275C108.707 20.712 109.199 20.076 109.751 19.356C110.423 18.492 110.879 18.06 111.119 18.06C111.359 18.06 111.659 18.156 112.019 18.348C112.379 18.54 112.559 18.768 112.559 19.032C112.559 19.296 111.983 20.076 110.831 21.372C111.455 21.396 112.271 21.408 113.279 21.408Z" fill="white"/>
<path d="M39.4417 29.76L39.0866 29.408L39.084 29.4106L39.4417 29.76ZM45.7417 21.264L45.2952 21.0389L45.2945 21.0404L45.7417 21.264ZM47.8657 13.92L48.356 13.8219L48.2756 13.42H47.8657V13.92ZM46.2457 13.092L46.5992 12.7384L45.7457 11.8849V13.092H46.2457ZM46.2457 13.128L45.9333 13.5184L46.7457 14.1683V13.128H46.2457ZM46.0657 11.508L46.378 11.8984L46.378 11.8984L46.0657 11.508ZM47.7937 11.688L47.3397 11.8975L47.3497 11.9193L47.3618 11.9399L47.7937 11.688ZM48.4057 12.48L48.7592 12.1264L48.7592 12.1264L48.4057 12.48ZM48.7297 12.984L48.2446 12.8627L48.191 13.0773L48.3137 13.2613L48.7297 12.984ZM50.4217 12.876L50.1217 12.476L50.1217 12.476L50.4217 12.876ZM50.9977 13.416L50.7648 12.9735L50.7226 12.9958L50.6853 13.0256L50.9977 13.416ZM50.1337 13.74V14.24H50.1515L50.1693 14.2387L50.1337 13.74ZM48.9817 13.74V13.24H48.3144L48.5018 13.8804L48.9817 13.74ZM46.6417 23.352L46.2132 23.0943L46.2118 23.0967L46.6417 23.352ZM39.5857 31.524L39.2675 31.1383L39.2634 31.1417L39.5857 31.524ZM30.4417 23.928L29.9872 23.7196L29.9864 23.7213L30.4417 23.928ZM33.0337 18.276L33.4882 18.4844L32.7273 17.8809L33.0337 18.276ZM29.5057 21.012L29.1993 20.6169L29.1932 20.6216L29.1872 20.6265L29.5057 21.012ZM26.1217 24.036L26.4675 24.3972L26.4676 24.397L26.1217 24.036ZM20.1817 30.768L19.7971 30.4484L19.7945 30.4517L20.1817 30.768ZM16.0057 35.88L16.382 36.2093L16.3876 36.2029L16.3929 36.1963L16.0057 35.88ZM14.2417 34.188L13.831 33.9029L13.8121 33.93L13.797 33.9593L14.2417 34.188ZM21.1897 24.18L21.6004 24.4652L21.603 24.4614L21.1897 24.18ZM16.4377 14.82L16.7197 15.2329L16.72 15.2327L16.4377 14.82ZM11.2537 19.896L11.656 20.1929L11.6576 20.1906L11.2537 19.896ZM16.7977 24.612L16.4747 24.2302L16.4681 24.236L16.7977 24.612ZM17.9857 24.072L18.466 24.211L18.4757 24.1774L18.4807 24.1427L17.9857 24.072ZM15.0337 26.7L15.2521 27.1498L15.2548 27.1485L15.0337 26.7ZM9.88569 27.888L9.98375 27.3977L9.9352 27.388H9.88569V27.888ZM9.84969 27.888L9.74576 28.3771L9.79715 28.388H9.84969V27.888ZM9.45369 19.68L9.84544 19.9907L9.84561 19.9905L9.45369 19.68ZM20.7577 11.436L20.5785 10.9692L20.5758 10.9703L20.7577 11.436ZM19.6777 28.824L19.2784 28.5231L19.2781 28.5235L19.6777 28.824ZM20.1097 29.112L19.7385 28.777L19.7369 28.7788L20.1097 29.112ZM27.0577 22.164L27.3878 22.5395L27.3892 22.5383L27.0577 22.164ZM31.4137 18.06L31.0725 17.6944L31.0665 17.7002L31.4137 18.06ZM34.9057 15.324L34.6435 14.898L34.6321 14.9055L34.9057 15.324ZM37.4617 15.54L37.8508 15.854L38.0774 15.5732L37.8823 15.2696L37.4617 15.54ZM31.6657 24.756L31.216 24.5375L31.2153 24.5388L31.6657 24.756ZM28.7177 32.028C28.7177 32.9091 28.9383 33.6617 29.4671 34.1906C29.996 34.7194 30.7486 34.94 31.6297 34.94V33.94C30.9028 33.94 30.4494 33.7586 30.1742 33.4834C29.8991 33.2083 29.7177 32.7549 29.7177 32.028H28.7177ZM31.6297 34.94C34.009 34.94 36.7404 33.2407 39.7993 30.1094L39.084 29.4106C36.047 32.5193 33.5704 33.94 31.6297 33.94V34.94ZM39.7968 30.112C42.5863 27.2983 44.7207 24.424 46.1889 21.4876L45.2945 21.0404C43.8827 23.864 41.8171 26.6537 39.0866 29.408L39.7968 30.112ZM46.1882 21.4891C47.6558 18.5779 48.4377 16.2787 48.4377 14.64H47.4377C47.4377 16.0253 46.7556 18.1421 45.2952 21.0389L46.1882 21.4891ZM48.4377 14.64C48.4377 14.3664 48.4103 14.0936 48.356 13.8219L47.3754 14.0181C47.4171 14.2264 47.4377 14.4336 47.4377 14.64H48.4377ZM47.8657 13.42C47.5223 13.42 47.1021 13.2413 46.5992 12.7384L45.8921 13.4456C46.4933 14.0467 47.1531 14.42 47.8657 14.42V13.42ZM45.7457 13.092V13.128H46.7457V13.092H45.7457ZM46.558 12.7376C46.2456 12.4876 46.2057 12.3279 46.2057 12.264H45.2057C45.2057 12.7761 45.5258 13.1924 45.9333 13.5184L46.558 12.7376ZM46.2057 12.264C46.2057 12.1012 46.2587 11.9939 46.378 11.8984L45.7533 11.1176C45.3927 11.4061 45.2057 11.8028 45.2057 12.264H46.2057ZM46.378 11.8984C46.5091 11.7936 46.7022 11.72 47.0017 11.72V10.72C46.5331 10.72 46.1022 10.8384 45.7533 11.1176L46.378 11.8984ZM47.0017 11.72C47.1265 11.72 47.1956 11.7451 47.2333 11.7675C47.2675 11.7877 47.3049 11.8222 47.3397 11.8975L48.2477 11.4785C48.1384 11.2418 47.9718 11.0423 47.7421 10.9065C47.5158 10.7729 47.2608 10.72 47.0017 10.72V11.72ZM47.3618 11.9399C47.5518 12.2657 47.7823 12.5637 48.0521 12.8336L48.7592 12.1264C48.5491 11.9163 48.3715 11.6863 48.2256 11.4361L47.3618 11.9399ZM48.0521 12.8336C48.1618 12.9432 48.2202 13.0161 48.2461 13.0564C48.2588 13.0762 48.2537 13.0729 48.2465 13.0501C48.2396 13.0285 48.2208 12.9578 48.2446 12.8627L49.2148 13.1053C49.2814 12.8387 49.1497 12.6127 49.0873 12.5156C49.0052 12.3879 48.8896 12.2568 48.7592 12.1264L48.0521 12.8336ZM48.3137 13.2613C48.5617 13.6335 48.944 13.808 49.3777 13.808V12.808C49.2353 12.808 49.1856 12.7665 49.1457 12.7066L48.3137 13.2613ZM49.3777 13.808C49.8422 13.808 50.295 13.596 50.7217 13.276L50.1217 12.476C49.7804 12.732 49.5372 12.808 49.3777 12.808V13.808ZM50.7217 13.276C50.8979 13.1438 51.0403 13.0559 51.1511 13.0028C51.2057 12.9765 51.2478 12.9611 51.2783 12.9526C51.3091 12.944 51.3225 12.944 51.3217 12.944V11.944C51.1092 11.944 50.9029 12.0127 50.7183 12.1012C50.5291 12.1921 50.3294 12.3202 50.1217 12.476L50.7217 13.276ZM51.3217 12.944C51.3582 12.944 51.3765 12.9469 51.3811 12.9478C51.3865 12.9489 51.3662 12.9458 51.3344 12.9267C51.2994 12.9057 51.2551 12.8677 51.2221 12.8083C51.1895 12.7496 51.1817 12.6948 51.1817 12.66H52.1817C52.1817 12.4186 52.0648 12.1988 51.8489 12.0693C51.6738 11.9641 51.4754 11.944 51.3217 11.944V12.944ZM51.1817 12.66C51.1817 12.6357 51.1954 12.6503 51.1399 12.7115C51.0801 12.7777 50.9649 12.8682 50.7648 12.9735L51.2306 13.8585C51.6981 13.6124 52.1817 13.2347 52.1817 12.66H51.1817ZM50.6853 13.0256C50.5321 13.1482 50.3431 13.2238 50.0981 13.2413L50.1693 14.2387C50.5962 14.2082 50.9833 14.0678 51.31 13.8064L50.6853 13.0256ZM50.1337 13.24H48.9817V14.24H50.1337V13.24ZM48.5018 13.8804C48.7897 14.8641 48.9137 15.5108 48.9137 15.864H49.9137C49.9137 15.3532 49.7496 14.5839 49.4616 13.5996L48.5018 13.8804ZM48.9137 15.864C48.9137 17.644 48.0488 20.043 46.2132 23.0943L47.0701 23.6097C48.9306 20.517 49.9137 17.924 49.9137 15.864H48.9137ZM46.2118 23.0967C44.4185 26.1169 42.105 28.7973 39.2675 31.1383L39.9039 31.9097C42.8263 29.4987 45.2169 26.7311 47.0716 23.6073L46.2118 23.0967ZM39.2634 31.1417C36.3989 33.5565 33.8711 34.696 31.6657 34.696V35.696C34.2123 35.696 36.9645 34.3875 39.908 31.9063L39.2634 31.1417ZM31.6657 34.696C30.5642 34.696 29.8304 34.4263 29.3696 33.9748C28.9106 33.5253 28.6377 32.8123 28.6377 31.74H27.6377C27.6377 32.9717 27.9527 33.9867 28.6698 34.6892C29.385 35.3897 30.4152 35.696 31.6657 35.696V34.696ZM28.6377 31.74C28.6377 30.029 29.3661 27.5073 30.897 24.1347L29.9864 23.7213C28.4452 27.1167 27.6377 29.803 27.6377 31.74H28.6377ZM30.8962 24.1364L33.4882 18.4844L32.5792 18.0676L29.9872 23.7196L30.8962 24.1364ZM32.7273 17.8809L29.1993 20.6169L29.8121 21.4071L33.3401 18.6711L32.7273 17.8809ZM29.1872 20.6265C28.0728 21.5472 26.9356 22.5635 25.7757 23.675L26.4676 24.397C27.6118 23.3005 28.7306 22.3008 29.8241 21.3975L29.1872 20.6265ZM25.7759 23.6748C24.6242 24.7775 22.6268 27.0432 19.7971 30.4484L20.5662 31.0876C23.4005 27.6768 25.3632 25.4545 26.4675 24.3972L25.7759 23.6748ZM19.7945 30.4517L15.6185 35.5637L16.3929 36.1963L20.5689 31.0843L19.7945 30.4517ZM15.6294 35.5507C14.9726 36.3014 14.5015 36.532 14.2057 36.532V37.532C14.9659 37.532 15.6948 36.9946 16.382 36.2093L15.6294 35.5507ZM14.2057 36.532C14.1569 36.532 14.1376 36.5241 14.136 36.5234C14.1352 36.5231 14.1369 36.5237 14.1394 36.5257C14.1419 36.5277 14.1429 36.529 14.1423 36.5283C14.1373 36.5218 14.0937 36.4535 14.0937 36.24H13.0937C13.0937 36.5545 13.152 36.8822 13.351 37.1397C13.5689 37.4217 13.8852 37.532 14.2057 37.532V36.532ZM14.0937 36.24C14.0937 35.8318 14.2663 35.2335 14.6863 34.4167L13.797 33.9593C13.3531 34.8225 13.0937 35.5922 13.0937 36.24H14.0937ZM14.6524 34.4731L21.6004 24.4651L20.779 23.8949L13.831 33.9029L14.6524 34.4731ZM21.603 24.4614C23.7072 21.3712 25.2933 18.8348 26.3552 16.8565C26.8861 15.8675 27.2907 15.0094 27.5638 14.2854C27.8334 13.5706 27.9897 12.9484 27.9897 12.444H26.9897C26.9897 12.7676 26.8835 13.2554 26.6281 13.9326C26.3761 14.6006 25.9933 15.4165 25.4741 16.3835C24.4361 18.3172 22.8722 20.8208 20.7764 23.8986L21.603 24.4614ZM27.9897 12.444C27.9897 12.1365 27.9179 11.8439 27.7583 11.5839C27.5994 11.3251 27.3705 11.1264 27.0982 10.9786C26.5687 10.6911 25.8386 10.576 24.9697 10.576V11.576C25.7808 11.576 26.3107 11.6889 26.6211 11.8574C26.7689 11.9376 26.855 12.0239 26.9061 12.1071C26.9565 12.1891 26.9897 12.2955 26.9897 12.444H27.9897ZM24.9697 10.576C22.7644 10.576 19.8093 11.9073 16.1553 14.4073L16.72 15.2327C20.3621 12.7407 23.095 11.576 24.9697 11.576V10.576ZM16.1557 14.4071C14.1379 15.7851 12.3693 17.518 10.8497 19.6013L11.6576 20.1906C13.114 18.194 14.8015 16.5429 16.7197 15.2329L16.1557 14.4071ZM10.8514 19.5991C9.34732 21.6369 8.52169 23.4262 8.52169 24.936H9.52169C9.52169 23.7578 10.1841 22.1871 11.656 20.1929L10.8514 19.5991ZM8.52169 24.936C8.52169 25.7197 8.79319 26.3791 9.38943 26.8223C9.95785 27.2448 10.7503 27.416 11.6857 27.416V26.416C10.8451 26.416 10.3055 26.2572 9.98595 26.0197C9.69418 25.8028 9.52169 25.4723 9.52169 24.936H8.52169ZM11.6857 27.416C13.5044 27.416 15.321 26.5716 17.1273 24.988L16.4681 24.236C14.7704 25.7244 13.179 26.416 11.6857 26.416V27.416ZM17.1207 24.9937C17.4298 24.7321 17.6654 24.5429 17.8314 24.4212C17.9153 24.3596 17.9723 24.3221 18.0067 24.3022C18.0242 24.2921 18.0268 24.2918 18.018 24.2954C18.0131 24.2974 18.0001 24.3025 17.9805 24.3075C17.9624 24.3121 17.9261 24.32 17.8777 24.32V23.32C17.7679 23.32 17.6798 23.3534 17.6407 23.3693C17.5914 23.3894 17.5452 23.4139 17.5057 23.4368C17.4261 23.4829 17.3361 23.5444 17.24 23.6148C17.046 23.7571 16.7896 23.9639 16.4747 24.2303L17.1207 24.9937ZM17.8777 24.32C17.8283 24.32 17.7502 24.3086 17.67 24.2576C17.5881 24.2054 17.5409 24.1355 17.5171 24.08C17.4955 24.0296 17.4933 23.9926 17.493 23.9855C17.4926 23.9768 17.4937 23.9806 17.4907 24.0013L18.4807 24.1427C18.4962 24.034 18.5098 23.8577 18.4363 23.686C18.3945 23.5885 18.3218 23.4871 18.2069 23.4139C18.0936 23.3419 17.9751 23.32 17.8777 23.32V24.32ZM17.5054 23.933C17.3051 24.625 16.5015 25.419 14.8126 26.2515L15.2548 27.1485C16.9739 26.301 18.1383 25.343 18.466 24.211L17.5054 23.933ZM14.8152 26.2502C13.1755 27.0467 11.7642 27.424 10.5697 27.424V28.424C11.9672 28.424 13.5319 27.9853 15.2521 27.1498L14.8152 26.2502ZM10.5697 27.424C10.2285 27.424 10.0482 27.4106 9.98375 27.3977L9.78763 28.3783C9.96315 28.4134 10.2388 28.424 10.5697 28.424V27.424ZM9.88569 27.388H9.84969V28.388H9.88569V27.388ZM9.95362 27.3989C9.04691 27.2062 8.42869 26.8981 8.04101 26.5152C7.66639 26.1453 7.46969 25.6694 7.46969 25.044H6.46969C6.46969 25.9066 6.75298 26.6487 7.33836 27.2268C7.91069 27.7919 8.73247 28.1618 9.74576 28.3771L9.95362 27.3989ZM7.46969 25.044C7.46969 23.7284 8.21034 22.0523 9.84544 19.9907L9.06194 19.3693C7.38504 21.4837 6.46969 23.3836 6.46969 25.044H7.46969ZM9.84561 19.9905C12.7158 16.3674 16.4099 13.6711 20.9396 11.9017L20.5758 10.9703C15.8895 12.8009 12.0475 15.6006 9.06177 19.3695L9.84561 19.9905ZM20.9369 11.9028C23.2882 11.0002 25.1781 10.568 26.6257 10.568V9.568C25.0012 9.568 22.9791 10.0478 20.5785 10.9692L20.9369 11.9028ZM26.6257 10.568C27.5347 10.568 28.1295 10.7205 28.4838 10.9536C28.8015 11.1628 28.9697 11.4644 28.9697 11.94H29.9697C29.9697 11.1676 29.6639 10.5332 29.0336 10.1184C28.4398 9.72753 27.6127 9.568 26.6257 9.568V10.568ZM28.9697 11.94C28.9697 12.4954 28.7918 13.2644 28.393 14.2687C27.9972 15.2654 27.398 16.4595 26.5892 17.8542C24.9716 20.6432 22.5371 24.1981 19.2784 28.5231L20.077 29.1249C23.3463 24.7859 25.8078 21.1948 27.4542 18.3558C28.2774 16.9365 28.9022 15.6961 29.3224 14.6378C29.7396 13.5871 29.9697 12.6806 29.9697 11.94H28.9697ZM19.2781 28.5235C18.1862 29.9753 17.3648 31.0635 16.8137 31.7884C16.5379 32.1511 16.3307 32.4216 16.1913 32.601C16.1213 32.6911 16.0702 32.7559 16.0368 32.7972C16.0194 32.8186 16.0102 32.8296 16.0067 32.8335C16.0041 32.8365 16.0093 32.8304 16.019 32.8207C16.0227 32.8171 16.0373 32.8026 16.0587 32.7858C16.0688 32.7779 16.0917 32.7604 16.1238 32.7426C16.1397 32.7337 16.233 32.68 16.3657 32.68V33.68C16.4987 33.68 16.5925 33.6261 16.6091 33.6169C16.6419 33.5987 16.6655 33.5807 16.6765 33.5721C16.6997 33.5539 16.7166 33.5373 16.7232 33.5308C16.7386 33.5154 16.7517 33.5008 16.7589 33.4925C16.7754 33.4737 16.7944 33.4506 16.8139 33.4266C16.8539 33.3772 16.91 33.3059 16.981 33.2145C17.1237 33.0309 17.3335 32.7569 17.6097 32.3936C18.1625 31.6665 18.9852 30.5767 20.0773 29.1245L19.2781 28.5235ZM16.3657 33.68C16.4555 33.68 16.5233 33.6558 16.5515 33.6449C16.5854 33.6317 16.6117 33.6173 16.6275 33.6081C16.6591 33.5897 16.6843 33.5709 16.699 33.5595C16.7301 33.5355 16.761 33.5079 16.7876 33.4833C16.843 33.432 16.9143 33.361 16.9985 33.2745C17.1685 33.0999 17.4108 32.8415 17.7236 32.5016C18.3501 31.8208 19.2701 30.8016 20.4825 29.4452L19.7369 28.7788C18.5253 30.1344 17.6092 31.1492 16.9878 31.8244C16.6766 32.1625 16.4419 32.4126 16.2819 32.577C16.2011 32.66 16.1442 32.7162 16.108 32.7496C16.0889 32.7673 16.0832 32.7716 16.0869 32.7687C16.0879 32.768 16.1017 32.7571 16.1242 32.744C16.1355 32.7374 16.1579 32.725 16.1884 32.7131C16.2131 32.7035 16.2781 32.68 16.3657 32.68V33.68ZM20.4808 29.447C22.9191 26.7459 25.2214 24.4441 27.3878 22.5395L26.7276 21.7885C24.526 23.7239 22.1963 26.0541 19.7385 28.777L20.4808 29.447ZM27.3892 22.5383C28.2382 21.7863 29.6973 20.4114 31.7609 18.4198L31.0665 17.7002C29.0021 19.6926 27.5572 21.0537 26.7262 21.7897L27.3892 22.5383ZM31.7548 18.4255C32.8137 17.4373 33.9551 16.5429 35.1793 15.7425L34.6321 14.9055C33.3603 15.7371 32.1737 16.6667 31.0725 17.6945L31.7548 18.4255ZM35.1677 15.7498C35.368 15.6266 35.7058 15.536 36.2377 15.536V14.536C35.6175 14.536 35.0674 14.6374 34.6436 14.8982L35.1677 15.7498ZM36.2377 15.536C36.7586 15.536 36.9574 15.6801 37.0411 15.8104L37.8823 15.2696C37.534 14.7279 36.9168 14.536 36.2377 14.536V15.536ZM37.0726 15.226C34.8391 17.9936 32.8872 21.0981 31.216 24.5375L32.1154 24.9745C33.7561 21.5979 35.6683 18.5584 37.8508 15.854L37.0726 15.226ZM31.2153 24.5388C30.3941 26.2417 29.7727 27.714 29.3558 28.9525C28.9414 30.1835 28.7177 31.2158 28.7177 32.028H29.7177C29.7177 31.3762 29.902 30.4645 30.3036 29.2715C30.7026 28.086 31.3053 26.6543 32.1161 24.9732L31.2153 24.5388ZM50.1337 14.24H50.1697V13.24H50.1337V14.24ZM50.1697 13.24H50.1337V14.24H50.1697V13.24ZM56.1013 18.672L55.7964 19.0683L55.8131 19.0812L55.8309 19.0926L56.1013 18.672ZM56.1373 20.292L56.4373 20.692L56.4421 20.6883L56.1373 20.292ZM54.1573 20.22L53.8194 20.5886L53.8267 20.5953L53.8343 20.6017L54.1573 20.22ZM48.8653 25.656L49.29 25.9198L49.2912 25.9178L48.8653 25.656ZM52.2853 22.164V21.6638L52.2714 21.6642L52.2853 22.164ZM53.0773 22.452L52.7999 22.868L52.8075 22.8731L52.8152 22.8778L53.0773 22.452ZM53.5453 23.028L53.9521 23.3186L54.0453 23.1882V23.028H53.5453ZM53.1133 23.604L53.4895 23.9333L53.4991 23.9224L53.5079 23.911L53.1133 23.604ZM52.5732 24.252L52.1828 23.9397L52.1828 23.9397L52.5732 24.252ZM51.7812 25.296L52.1761 25.6031L52.1838 25.5926L51.7812 25.296ZM50.8093 26.556L51.2048 26.8618L51.2064 26.8597L50.8093 26.556ZM51.0613 31.848L50.798 31.4228L50.7921 31.4267L51.0613 31.848ZM55.8493 27.744L56.2415 28.054L56.243 28.0522L55.8493 27.744ZM56.1373 28.356L55.7763 28.01L55.7763 28.01L56.1373 28.356ZM54.8053 29.724L54.4517 29.3704L54.4452 29.377L54.4389 29.3838L54.8053 29.724ZM54.1573 30.408L54.4696 30.7984L54.4912 30.7811L54.5108 30.7616L54.1573 30.408ZM53.4733 31.02L53.8124 31.3874L53.8135 31.3864L53.4733 31.02ZM52.7533 31.632L52.4626 31.2251L52.4626 31.2251L52.7533 31.632ZM52.0332 32.172L51.7284 31.7757L51.7284 31.7757L52.0332 32.172ZM51.2053 32.712L51.3909 33.1762L51.4103 33.1685L51.4289 33.1592L51.2053 32.712ZM50.3773 33.072L50.5743 33.5317L50.5868 33.526L50.3773 33.072ZM55.0933 18.812C55.3325 18.812 55.5631 18.8889 55.7964 19.0683L56.4061 18.2757C56.0154 17.9751 55.574 17.812 55.0933 17.812V18.812ZM55.8309 19.0926C56.0692 19.2458 56.1053 19.3699 56.1053 19.464H57.1053C57.1053 18.9341 56.8053 18.5302 56.3716 18.2514L55.8309 19.0926ZM56.1053 19.464C56.1053 19.5809 56.0568 19.7231 55.8324 19.8957L56.4421 20.6883C56.8417 20.3809 57.1053 19.9711 57.1053 19.464H56.1053ZM55.8373 19.892C55.6358 20.0431 55.4171 20.116 55.1653 20.116V21.116C55.6334 21.116 56.0627 20.9729 56.4373 20.692L55.8373 19.892ZM55.1653 20.116C54.9395 20.116 54.7149 20.0369 54.4802 19.8383L53.8343 20.6017C54.2236 20.9311 54.671 21.116 55.1653 21.116V20.116ZM54.4951 19.8514C54.292 19.6652 54.2253 19.4927 54.2253 19.32H53.2253C53.2253 19.8193 53.4465 20.2468 53.8194 20.5886L54.4951 19.8514ZM54.2253 19.32C54.2253 19.1094 54.2885 19.022 54.3638 18.9665C54.4677 18.89 54.684 18.812 55.0933 18.812V17.812C54.5905 17.812 54.1228 17.902 53.7707 18.1615C53.39 18.442 53.2253 18.8586 53.2253 19.32H54.2253ZM48.5773 32.896C48.0817 32.896 47.786 32.7423 47.5959 32.4963C47.3869 32.2258 47.2412 31.7615 47.2412 31.02H46.2412C46.2412 31.8625 46.4016 32.5862 46.8046 33.1077C47.2265 33.6537 47.8488 33.896 48.5773 33.896V32.896ZM47.2412 31.02C47.2412 29.8739 47.8807 28.189 49.29 25.9198L48.4405 25.3922C47.0178 27.683 46.2412 29.5741 46.2412 31.02H47.2412ZM49.2912 25.9178C49.9907 24.7797 50.6071 23.9485 51.1395 23.4049C51.6901 22.8426 52.0716 22.6701 52.2991 22.6638L52.2714 21.6642C51.6349 21.6819 51.0144 22.1034 50.425 22.7051C49.8174 23.3255 49.1558 24.2283 48.4393 25.3942L49.2912 25.9178ZM52.2853 22.664C52.3919 22.664 52.5594 22.7077 52.7999 22.868L53.3546 22.036C53.0191 21.8123 52.6586 21.664 52.2853 21.664V22.664ZM52.8152 22.8778C52.9441 22.9571 53.0104 23.0186 53.0402 23.0553C53.067 23.0883 53.0453 23.0765 53.0453 23.028H54.0453C54.0453 22.5514 53.6701 22.2297 53.3393 22.0262L52.8152 22.8778ZM53.1384 22.7374C53.0234 22.8984 52.8837 23.0848 52.7186 23.297L53.5079 23.911C53.6789 23.6912 53.8271 23.4936 53.9521 23.3186L53.1384 22.7374ZM52.737 23.2747C52.5633 23.4733 52.3785 23.695 52.1828 23.9397L52.9637 24.5643C53.152 24.329 53.3272 24.1187 53.4895 23.9333L52.737 23.2747ZM52.1828 23.9397C51.9846 24.1874 51.716 24.5417 51.3787 24.9994L52.1838 25.5926C52.5185 25.1383 52.7779 24.7966 52.9637 24.5643L52.1828 23.9397ZM51.3866 24.989C51.0498 25.422 50.725 25.8431 50.4121 26.2523L51.2064 26.8597C51.5175 26.4529 51.8407 26.034 52.1759 25.603L51.3866 24.989ZM50.4137 26.2502C49.5064 27.4236 48.8149 28.4295 48.3479 29.2638C47.8921 30.0783 47.6093 30.7988 47.6093 31.38H48.6093C48.6093 31.0732 48.7764 30.5457 49.2206 29.7522C49.6536 28.9785 50.3121 28.0164 51.2048 26.8618L50.4137 26.2502ZM47.6093 31.38C47.6093 31.8545 47.6888 32.2992 47.9236 32.6372C48.1813 33.0083 48.5721 33.176 49.0093 33.176V32.176C48.8464 32.176 48.7872 32.1277 48.7449 32.0668C48.6797 31.9728 48.6093 31.7695 48.6093 31.38H47.6093ZM49.0093 33.176C49.6658 33.176 50.4539 32.8294 51.3304 32.2693L50.7921 31.4267C49.9406 31.9706 49.3607 32.176 49.0093 32.176V33.176ZM51.3244 32.2731C53.378 31.0019 55.0218 29.5974 56.2415 28.054L55.457 27.434C54.3247 28.8666 52.7765 30.1981 50.7981 31.4229L51.3244 32.2731ZM56.243 28.0522C56.4535 27.7831 56.6165 27.5977 56.7352 27.484C56.7951 27.4266 56.8317 27.3992 56.8474 27.3891C56.8756 27.3711 56.8214 27.416 56.7133 27.416V26.416C56.5331 26.416 56.3889 26.4954 56.3091 26.5464C56.2168 26.6053 56.1274 26.6814 56.0433 26.762C55.874 26.9243 55.677 27.1529 55.4555 27.4358L56.243 28.0522ZM56.7133 27.416C56.7015 27.416 56.6067 27.4096 56.526 27.3173C56.4563 27.2377 56.4653 27.1699 56.4653 27.204H57.4653C57.4653 27.0461 57.4322 26.8343 57.2785 26.6587C57.1138 26.4704 56.893 26.416 56.7133 26.416V27.416ZM56.4653 27.204C56.4653 27.1434 56.4835 27.1242 56.4626 27.1679C56.4453 27.2041 56.4114 27.2619 56.3522 27.3442C56.2341 27.5086 56.0454 27.7292 55.7763 28.01L56.4982 28.702C56.7811 28.4068 57.0064 28.1474 57.1643 27.9278C57.2431 27.8181 57.3127 27.7079 57.3644 27.6001C57.4125 27.4998 57.4653 27.3606 57.4653 27.204H56.4653ZM55.7763 28.01C55.2253 28.5849 54.7841 29.0381 54.4517 29.3704L55.1588 30.0776C55.4984 29.7379 55.9452 29.2791 56.4982 28.702L55.7763 28.01ZM54.4389 29.3838C54.1263 29.7204 53.9162 29.9419 53.8037 30.0544L54.5108 30.7616C54.6383 30.6341 54.8602 30.3996 55.1716 30.0642L54.4389 29.3838ZM53.8449 30.0176C53.7081 30.127 53.4668 30.3436 53.133 30.6536L53.8135 31.3864C54.1517 31.0724 54.3664 30.881 54.4696 30.7984L53.8449 30.0176ZM53.1341 30.6526C52.825 30.938 52.6039 31.1242 52.4626 31.2251L53.0439 32.0389C53.2386 31.8998 53.4975 31.678 53.8124 31.3874L53.1341 30.6526ZM52.4626 31.2251C52.2873 31.3504 52.0417 31.5347 51.7284 31.7757L52.3381 32.5683C52.6488 32.3293 52.8832 32.1536 53.0439 32.0389L52.4626 31.2251ZM51.7284 31.7757C51.4312 32.0043 51.1831 32.1641 50.9816 32.2648L51.4289 33.1592C51.7074 33.0199 52.0113 32.8197 52.3381 32.5683L51.7284 31.7757ZM51.0196 32.2478C50.7694 32.3478 50.4852 32.4715 50.1677 32.618L50.5868 33.526C50.8933 33.3845 51.1611 33.2682 51.3909 33.1762L51.0196 32.2478ZM50.1803 32.6124C49.7529 32.7956 49.2231 32.896 48.5773 32.896V33.896C49.3234 33.896 49.9936 33.7804 50.5742 33.5316L50.1803 32.6124ZM62.0623 22.812L62.4681 23.1042L62.4916 23.0715L62.5096 23.0356L62.0623 22.812ZM58.1743 29.616L57.693 29.4806L57.175 31.3224L58.5279 29.9696L58.1743 29.616ZM68.3623 21.228V21.728H68.4119L68.4604 21.7183L68.3623 21.228ZM68.1823 24.396L68.564 24.719L68.5709 24.7108L68.5775 24.7024L68.1823 24.396ZM65.4823 27.996L65.0623 27.7247L65.0583 27.731L65.4823 27.996ZM70.4143 27.672L70.0608 27.3184L70.0516 27.3277L70.0429 27.3373L70.4143 27.672ZM70.6663 27.348L70.2822 27.0279L70.2703 27.0422L70.2595 27.0574L70.6663 27.348ZM70.9183 27.996L71.2938 28.3262L71.2946 28.3253L70.9183 27.996ZM64.2583 26.664L63.8325 26.402L63.8283 26.4089L63.8242 26.4159L64.2583 26.664ZM66.5623 22.92L66.9882 23.182L66.2661 22.5172L66.5623 22.92ZM62.2063 26.88L62.5783 27.2141L62.5811 27.211L62.2063 26.88ZM58.7143 31.02L58.3212 30.7111L58.3178 30.7155L58.7143 31.02ZM56.0503 32.604L55.6245 32.866L55.6366 32.8856L55.6503 32.904L56.0503 32.604ZM56.2303 29.688L55.7692 29.4946L55.7692 29.4946L56.2303 29.688ZM57.4183 26.988L57.8735 27.1949L57.0563 26.6432L57.4183 26.988ZM55.2583 29.256L55.612 29.6097L55.6204 29.6008L55.2583 29.256ZM54.3583 29.292L54.0048 28.9384L54.0048 28.9384L54.3583 29.292ZM56.6623 26.736L57.054 27.047L57.0595 27.0397L56.6623 26.736ZM60.5143 22.056L60.8965 22.3784L60.9057 22.3675L60.9143 22.356L60.5143 22.056ZM61.1983 22.124C61.4713 22.124 61.5841 22.1794 61.6204 22.2077C61.6328 22.2173 61.6703 22.2433 61.6703 22.38H62.6703C62.6703 22.0127 62.5459 21.6607 62.2343 21.4183C61.9466 21.1946 61.5734 21.124 61.1983 21.124V22.124ZM61.6703 22.38C61.6703 22.4376 61.6566 22.5055 61.6151 22.5884L62.5096 23.0356C62.6121 22.8305 62.6703 22.6104 62.6703 22.38H61.6703ZM61.6566 22.5198C59.4956 25.5212 58.1511 27.8518 57.693 29.4806L58.6557 29.7514C59.0616 28.3082 60.3091 26.1028 62.4681 23.1042L61.6566 22.5198ZM58.5279 29.9696C61.3199 27.1775 63.5537 25.0938 65.2331 23.711C66.0738 23.0189 66.7649 22.5113 67.3105 22.1794C67.8818 21.8318 68.2138 21.728 68.3623 21.728V20.728C67.9109 20.728 67.3683 20.9737 66.7907 21.3251C66.1873 21.6922 65.4549 22.2331 64.5975 22.939C62.881 24.3522 60.6207 26.4625 57.8208 29.2624L58.5279 29.9696ZM68.4604 21.7183C68.5564 21.6991 68.6308 21.692 68.6863 21.692V20.692C68.5499 20.692 68.4082 20.7089 68.2643 20.7377L68.4604 21.7183ZM68.6863 21.692C68.9584 21.692 69.069 21.7539 69.1093 21.79C69.1389 21.8164 69.1943 21.8847 69.1943 22.092H70.1943C70.1943 21.6993 70.0818 21.3176 69.7754 21.044C69.4797 20.7801 69.0863 20.692 68.6863 20.692V21.692ZM69.1943 22.092C69.1943 22.1436 69.1843 22.2008 69.1581 22.2663L70.0866 22.6377C70.1564 22.4632 70.1943 22.2804 70.1943 22.092H69.1943ZM69.1581 22.2663C69.1711 22.2339 69.169 22.2477 69.0933 22.3577C69.0322 22.4466 68.9432 22.5702 68.8246 22.7304C68.5879 23.0499 68.2425 23.5025 67.7872 24.0896L68.5775 24.7024C69.0342 24.1135 69.3848 23.6541 69.6281 23.3256C69.7495 23.1618 69.8465 23.0274 69.9174 22.9243C69.9737 22.8423 70.0496 22.7301 70.0866 22.6377L69.1581 22.2663ZM67.8007 24.073C66.7333 25.3344 65.8199 26.5517 65.0623 27.7247L65.9024 28.2673C66.6328 27.1363 67.5194 25.9536 68.564 24.719L67.8007 24.073ZM65.0583 27.731C64.3219 28.9093 63.9023 29.9669 63.9023 30.876H64.9023C64.9023 30.2491 65.2028 29.3867 65.9063 28.261L65.0583 27.731ZM63.9023 30.876C63.9023 31.2811 63.9443 31.6525 64.0703 31.9404C64.1357 32.09 64.2338 32.2402 64.3828 32.3537C64.5384 32.4722 64.7199 32.528 64.9063 32.528V31.528C64.9247 31.528 64.9593 31.5358 64.9889 31.5583C65.0118 31.5758 65.005 31.582 64.9864 31.5396C64.9444 31.4435 64.9023 31.2389 64.9023 30.876H63.9023ZM64.9063 32.528C65.2787 32.528 65.6715 32.4022 66.0689 32.2026C66.471 32.0007 66.9105 31.7068 67.3855 31.3312C68.3352 30.5801 69.4697 29.4677 70.7858 28.0067L70.0429 27.3373C68.743 28.7803 67.6514 29.8459 66.7652 30.5468C66.3222 30.8972 65.9412 31.1478 65.6202 31.3089C65.2947 31.4723 65.0619 31.528 64.9063 31.528V32.528ZM70.7679 28.0256C70.8501 27.9433 70.9575 27.8006 71.0732 27.6386L70.2595 27.0574C70.2017 27.1383 70.155 27.2014 70.1187 27.248C70.1006 27.2713 70.0863 27.2889 70.0754 27.3018C70.0639 27.3154 70.0594 27.3198 70.0608 27.3184L70.7679 28.0256ZM71.0505 27.6681C71.2274 27.4558 71.36 27.3075 71.4519 27.2156C71.499 27.1685 71.5248 27.1469 71.5333 27.1405C71.5378 27.1372 71.5271 27.1459 71.5042 27.1573C71.4894 27.1647 71.4186 27.2 71.3143 27.2V26.2C71.1921 26.2 71.0988 26.242 71.057 26.2629C71.0071 26.2879 70.9649 26.3168 70.9333 26.3405C70.8699 26.3881 70.8057 26.4475 70.7448 26.5084C70.6207 26.6325 70.4653 26.8082 70.2822 27.0279L71.0505 27.6681ZM71.3143 27.2C71.2514 27.2 71.1861 27.1863 71.1247 27.1571C71.0646 27.1284 71.0204 27.0908 70.9899 27.057C70.9343 26.9951 70.9181 26.9393 70.9164 26.9337C70.9129 26.922 70.9223 26.9528 70.9223 27.06H71.9223C71.9223 26.9272 71.9138 26.778 71.8743 26.6463C71.8546 26.5807 71.8159 26.4799 71.7332 26.388C71.6377 26.2818 71.4921 26.2 71.3143 26.2V27.2ZM70.9223 27.06C70.9223 27.0671 70.9182 27.1217 70.8561 27.2369C70.7958 27.349 70.6952 27.4918 70.5421 27.6667L71.2946 28.3253C71.4775 28.1162 71.6289 27.911 71.7366 27.711C71.8425 27.5143 71.9223 27.2929 71.9223 27.06H70.9223ZM70.5429 27.6658C69.0632 29.3483 67.8131 30.5929 66.7897 31.4128C66.2782 31.8226 65.8341 32.1175 65.4555 32.3082C65.0729 32.5008 64.7867 32.572 64.5823 32.572V33.572C65.002 33.572 65.4478 33.4317 65.9052 33.2013C66.3666 32.969 66.8705 32.6294 67.415 32.1932C68.5036 31.3211 69.7975 30.0277 71.2938 28.3262L70.5429 27.6658ZM64.5823 32.572C64.0846 32.572 63.7994 32.4371 63.6296 32.25C63.4515 32.0537 63.3183 31.7103 63.3183 31.128H62.3183C62.3183 31.8417 62.4792 32.4703 62.8891 32.922C63.3073 33.3829 63.9041 33.572 64.5823 33.572V32.572ZM63.3183 31.128C63.3183 29.9516 63.7559 28.551 64.6925 26.9121L63.8242 26.4159C62.8408 28.137 62.3183 29.7124 62.3183 31.128H63.3183ZM64.6842 26.926L66.9882 23.182L66.1365 22.658L63.8325 26.402L64.6842 26.926ZM66.2661 22.5172C64.607 23.7371 63.1284 25.0809 61.8316 26.549L62.5811 27.211C63.8283 25.7991 65.2537 24.5029 66.8585 23.3228L66.2661 22.5172ZM61.8344 26.5459C60.5559 27.9691 59.3847 29.3575 58.3212 30.7111L59.1075 31.3289C60.156 29.9945 61.3128 28.6229 62.5783 27.2141L61.8344 26.5459ZM58.3178 30.7155C57.804 31.3846 57.4049 31.877 57.1174 32.199C56.9724 32.3614 56.8653 32.4697 56.7921 32.5337C56.7746 32.549 56.761 32.56 56.7509 32.5677C56.7406 32.5757 56.7363 32.5782 56.7376 32.5774C56.738 32.5772 56.7508 32.5693 56.774 32.5605C56.7951 32.5525 56.845 32.536 56.9143 32.536V33.536C57.0785 33.536 57.2051 33.4635 57.2576 33.4316C57.3264 33.3897 57.3918 33.3377 57.4506 33.2863C57.5694 33.1823 57.7083 33.0386 57.8633 32.865C58.1758 32.515 58.5927 31.9994 59.1109 31.3245L58.3178 30.7155ZM56.9143 32.536C56.7117 32.536 56.5719 32.4661 56.4503 32.304L55.6503 32.904C55.9608 33.3179 56.397 33.536 56.9143 33.536V32.536ZM56.4762 32.342C56.3408 32.1219 56.2623 31.8443 56.2623 31.488H55.2623C55.2623 31.9957 55.3759 32.4621 55.6245 32.866L56.4762 32.342ZM56.2623 31.488C56.2623 31.1311 56.3884 30.604 56.6914 29.8814L55.7692 29.4946C55.4483 30.26 55.2623 30.9329 55.2623 31.488H56.2623ZM56.6914 29.8814C57.0009 29.1434 57.3948 28.2482 57.8735 27.1949L56.9632 26.7811C56.4819 27.8398 56.0838 28.7446 55.7692 29.4946L56.6914 29.8814ZM57.0563 26.6432L54.8963 28.9112L55.6204 29.6008L57.7804 27.3328L57.0563 26.6432ZM54.9048 28.9024C54.645 29.1622 54.446 29.3463 54.3035 29.4624C54.2315 29.5211 54.1846 29.5535 54.1591 29.5687C54.1106 29.5975 54.1699 29.548 54.2863 29.548V30.548C54.4628 30.548 54.6076 30.4655 54.6701 30.4283C54.7556 30.3775 54.8452 30.3109 54.9352 30.2376C55.1167 30.0897 55.3436 29.8778 55.6119 29.6096L54.9048 28.9024ZM54.2863 29.548C54.2914 29.548 54.3871 29.5496 54.4779 29.6404C54.5687 29.7313 54.5703 29.8269 54.5703 29.832H53.5703C53.5703 29.9811 53.608 30.1847 53.7708 30.3476C53.9336 30.5104 54.1373 30.548 54.2863 30.548V29.548ZM54.5703 29.832C54.5703 29.8459 54.5659 29.8393 54.5835 29.8063C54.6021 29.7715 54.64 29.7175 54.7119 29.6456L54.0048 28.9384C53.7744 29.1688 53.5703 29.4696 53.5703 29.832H54.5703ZM54.7119 29.6456C55.6107 28.7467 56.3919 27.8805 57.0539 27.0469L56.2708 26.4251C55.6367 27.2235 54.882 28.0613 54.0048 28.9384L54.7119 29.6456ZM57.0595 27.0397C57.6751 26.2348 58.9513 24.6838 60.8965 22.3784L60.1322 21.7336C58.1894 24.0362 56.8976 25.6052 56.2652 26.4323L57.0595 27.0397ZM60.9143 22.356C61.0849 22.1287 61.1825 22.124 61.1983 22.124V21.124C60.7342 21.124 60.3758 21.4073 60.1143 21.756L60.9143 22.356ZM71.9379 33.36L72.096 32.8857L72.0847 32.8819L72.0732 32.8787L71.9379 33.36ZM72.8019 24.936L72.4406 24.5904L72.8019 24.936ZM79.8219 22.092L79.4816 22.4584L79.4951 22.4709L79.5095 22.4824L79.8219 22.092ZM79.8939 24.936L80.3292 25.1821L80.3335 25.1741L79.8939 24.936ZM78.0219 24L77.5947 23.74L77.5914 23.7456L78.0219 24ZM78.4179 23.064V22.564H78.3912L78.3646 22.5668L78.4179 23.064ZM75.6459 24.504L75.3446 24.105L75.3406 24.108L75.6459 24.504ZM73.2699 26.736L72.864 26.4438L72.8572 26.4537L73.2699 26.736ZM71.8659 28.788L71.4532 28.5057L71.4474 28.5142L71.4419 28.523L71.8659 28.788ZM71.3259 30.156L70.8383 30.0452L70.8359 30.0558L70.8339 30.0666L71.3259 30.156ZM71.6139 32.244L71.2342 32.5694L71.2407 32.5769L71.2475 32.5842L71.6139 32.244ZM77.3739 30.66L77.6823 31.0535L77.6856 31.0509L77.3739 30.66ZM81.4779 26.628L81.0938 26.3079L81.086 26.3172L81.0788 26.3268L81.4779 26.628ZM81.9819 26.916L81.5978 26.5959L81.5899 26.6053L81.5825 26.6151L81.9819 26.916ZM77.2299 31.524L77.5195 31.9316L77.5205 31.9309L77.2299 31.524ZM72.6579 32.968C72.4392 32.968 72.2536 32.9382 72.096 32.8857L71.7798 33.8343C72.0541 33.9258 72.3485 33.968 72.6579 33.968V32.968ZM72.0732 32.8787C71.3636 32.6791 70.8842 32.394 70.5836 32.0558C70.2909 31.7266 70.1339 31.3095 70.1339 30.768H69.1339C69.1339 31.5225 69.3608 32.1854 69.8362 32.7202C70.3036 33.246 70.9762 33.6089 71.8025 33.8413L72.0732 32.8787ZM70.1339 30.768C70.1339 29.2879 71.0744 27.4654 73.1632 25.2816L72.4406 24.5904C70.3054 26.8226 69.1339 28.8881 69.1339 30.768H70.1339ZM73.1632 25.2816C75.2515 23.0984 77.0227 22.124 78.4899 22.124V21.124C76.597 21.124 74.5762 22.3576 72.4406 24.5904L73.1632 25.2816ZM78.4899 22.124C78.9429 22.124 79.2563 22.2491 79.4816 22.4584L80.1621 21.7256C79.7154 21.3109 79.1409 21.124 78.4899 21.124V22.124ZM79.5095 22.4824C79.7328 22.661 79.8619 22.915 79.8619 23.316H80.8619C80.8619 22.661 80.631 22.099 80.1342 21.7016L79.5095 22.4824ZM79.8619 23.316C79.8619 23.7156 79.7381 24.1737 79.4542 24.6979L80.3335 25.1741C80.6736 24.5463 80.8619 23.9244 80.8619 23.316H79.8619ZM79.4586 24.69C79.2335 25.0882 78.93 25.264 78.4899 25.264V26.264C79.2977 26.264 79.9302 25.8878 80.3292 25.182L79.4586 24.69ZM78.4899 25.264C78.2129 25.264 78.0894 25.2185 78.0499 25.1942C78.0375 25.1865 78.0445 25.188 78.052 25.2019C78.059 25.2147 78.0539 25.2152 78.0539 25.188H77.0539C77.0539 25.5435 77.2135 25.8536 77.5258 26.0458C77.7983 26.2135 78.1428 26.264 78.4899 26.264V25.264ZM78.0539 25.188C78.0539 25.1454 78.0687 25.0473 78.1361 24.8763C78.2012 24.711 78.3045 24.5046 78.4523 24.2544L77.5914 23.7456C77.4273 24.0234 77.2966 24.279 77.2057 24.5097C77.117 24.7347 77.0539 24.9666 77.0539 25.188H78.0539ZM78.449 24.26C78.6174 23.9833 78.7453 23.7701 78.8318 23.6219C78.8746 23.5485 78.9095 23.4872 78.9346 23.4405C78.9467 23.418 78.9598 23.3929 78.9711 23.3688C78.9764 23.3574 78.9849 23.3386 78.9931 23.3164C78.9971 23.3054 79.0035 23.2872 79.0094 23.2645C79.0137 23.2478 79.0259 23.1991 79.0259 23.136H78.0259C78.0259 23.0744 78.0377 23.0278 78.0414 23.0135C78.0466 22.9934 78.052 22.9782 78.0547 22.9707C78.0603 22.9557 78.0648 22.9461 78.0649 22.9459C78.0657 22.9443 78.063 22.95 78.0541 22.9665C78.0372 22.9978 78.0091 23.0475 77.968 23.1181C77.8864 23.2579 77.7624 23.4647 77.5948 23.74L78.449 24.26ZM79.0259 23.136C79.0259 22.9663 78.9503 22.782 78.7762 22.666C78.6379 22.5738 78.4936 22.564 78.4179 22.564V23.564C78.4141 23.564 78.3238 23.5662 78.2215 23.498C78.1637 23.4595 78.1092 23.4027 78.0719 23.3281C78.0356 23.2555 78.0259 23.1868 78.0259 23.136H79.0259ZM78.3646 22.5668C77.5453 22.6546 76.526 23.2129 75.3446 24.105L75.9472 24.903C77.1178 24.0191 77.9465 23.6174 78.4711 23.5612L78.3646 22.5668ZM75.3406 24.108C74.1798 25.0028 73.3401 25.7828 72.8641 26.4438L73.6756 27.0282C74.0637 26.4892 74.808 25.7812 75.9511 24.9L75.3406 24.108ZM72.8572 26.4537L71.4532 28.5057L72.2785 29.0703L73.6825 27.0183L72.8572 26.4537ZM71.4419 28.523C71.167 28.9627 70.9684 29.473 70.8383 30.0452L71.8134 30.2668C71.9234 29.783 72.0847 29.3813 72.2899 29.053L71.4419 28.523ZM70.8339 30.0666C70.7369 30.6004 70.6819 31.033 70.6819 31.344H71.6819C71.6819 31.127 71.7229 30.7676 71.8178 30.2454L70.8339 30.0666ZM70.6819 31.344C70.6819 31.7852 70.9171 32.1993 71.2342 32.5694L71.9935 31.9186C71.7347 31.6167 71.6819 31.4308 71.6819 31.344H70.6819ZM71.2475 32.5842C71.6731 33.0426 72.2495 33.248 72.9099 33.248V32.248C72.4662 32.248 72.1786 32.1174 71.9803 31.9038L71.2475 32.5842ZM72.9099 33.248C74.2844 33.248 75.8854 32.4619 77.6823 31.0535L77.0654 30.2665C75.3103 31.6421 73.9353 32.248 72.9099 32.248V33.248ZM77.6856 31.0509C79.4817 29.6189 80.8835 28.2455 81.877 26.9292L81.0788 26.3268C80.1522 27.5545 78.818 28.8691 77.0622 30.2691L77.6856 31.0509ZM81.862 26.9481C81.885 26.9205 81.8985 26.9137 81.8995 26.9132C81.9003 26.9128 81.9005 26.9128 81.9008 26.9127C81.9012 26.9126 81.9039 26.912 81.9099 26.912V25.912C81.5751 25.912 81.2964 26.0648 81.0938 26.3079L81.862 26.9481ZM81.9099 26.912C81.9626 26.912 81.9213 26.9224 81.8508 26.8821C81.808 26.8577 81.7546 26.8142 81.7142 26.7449C81.6737 26.6755 81.6619 26.6069 81.6619 26.556H82.6619C82.6619 26.3268 82.5432 26.126 82.3469 26.0139C82.1924 25.9256 82.0251 25.912 81.9099 25.912V26.912ZM81.6619 26.556C81.6619 26.528 81.6662 26.5082 81.6689 26.4987C81.6715 26.4894 81.673 26.4877 81.6697 26.4944C81.6622 26.5093 81.642 26.5428 81.5978 26.5959L82.366 27.2361C82.4997 27.0756 82.6619 26.838 82.6619 26.556H81.6619ZM81.5825 26.6151C80.2942 28.325 78.7473 29.8257 76.9393 31.1171L77.5205 31.9309C79.4084 30.5823 81.0295 29.011 82.3812 27.2169L81.5825 26.6151ZM76.9403 31.1164C75.1401 32.3955 73.7225 32.968 72.6579 32.968V33.968C74.0412 33.968 75.6717 33.2445 77.5195 31.9316L76.9403 31.1164ZM81.2332 33.36L81.3913 32.8857L81.38 32.8819L81.3686 32.8787L81.2332 33.36ZM89.1172 22.092L88.777 22.4584L88.7905 22.4709L88.8048 22.4824L89.1172 22.092ZM86.5972 27.024L86.3399 26.5952L86.3377 26.5966L86.5972 27.024ZM81.1612 28.788L81.3193 28.3137L80.9256 28.1824L80.7241 28.5452L81.1612 28.788ZM87.0292 30.3L86.716 29.9101L86.7058 29.9187L87.0292 30.3ZM90.7732 26.556L91.1672 26.864L91.1732 26.856L90.7732 26.556ZM91.2772 26.952L91.6753 27.2548L91.6816 27.2461L91.2772 26.952ZM86.5972 31.488L86.3041 31.0829L86.3041 31.0829L86.5972 31.488ZM85.2292 24.072L85.5475 24.4576L85.5485 24.4568L85.2292 24.072ZM81.7012 27.996L81.2751 27.7344L80.9455 28.2711L81.5431 28.4703L81.7012 27.996ZM85.8052 26.628L86.0732 27.0501L86.0749 27.049L85.8052 26.628ZM88.6852 23.424L88.2209 23.2383L88.2155 23.2519L88.2108 23.2659L88.6852 23.424ZM81.9532 32.968C81.7345 32.968 81.5489 32.9382 81.3913 32.8857L81.0751 33.8343C81.3495 33.9258 81.6438 33.968 81.9532 33.968V32.968ZM81.3686 32.8787C80.6589 32.6791 80.1795 32.394 79.8789 32.0558C79.5862 31.7266 79.4292 31.3095 79.4292 30.768H78.4292C78.4292 31.5225 78.6561 32.1854 79.1315 32.7202C79.5989 33.246 80.2715 33.6089 81.0978 33.8413L81.3686 32.8787ZM79.4292 30.768C79.4292 29.2879 80.3697 27.4654 82.4585 25.2816L81.7359 24.5904C79.6007 26.8226 78.4292 28.8881 78.4292 30.768H79.4292ZM82.4585 25.2816C84.5468 23.0984 86.318 22.124 87.7852 22.124V21.124C85.8924 21.124 83.8715 22.3576 81.7359 24.5904L82.4585 25.2816ZM87.7852 22.124C88.2382 22.124 88.5516 22.2491 88.777 22.4584L89.4574 21.7256C89.0108 21.3109 88.4362 21.124 87.7852 21.124V22.124ZM88.8048 22.4824C89.0554 22.6829 89.1572 22.9033 89.1572 23.172H90.1572C90.1572 22.5767 89.899 22.0771 89.4295 21.7016L88.8048 22.4824ZM89.1572 23.172C89.1572 24.2377 88.3456 25.3919 86.3399 26.5953L86.8544 27.4527C88.9288 26.2081 90.1572 24.7943 90.1572 23.172H89.1572ZM86.3377 26.5966C84.3432 27.8076 82.7965 28.36 81.6652 28.36V29.36C83.0778 29.36 84.8192 28.6884 86.8567 27.4514L86.3377 26.5966ZM81.6652 28.36C81.5134 28.36 81.4009 28.3408 81.3193 28.3137L81.0031 29.2623C81.2095 29.3312 81.433 29.36 81.6652 29.36V28.36ZM80.7241 28.5452C80.3241 29.2652 80.1212 30.0324 80.1212 30.84H81.1212C81.1212 30.2076 81.2783 29.6068 81.5983 29.0308L80.7241 28.5452ZM80.1212 30.84C80.1212 31.5339 80.2841 32.1473 80.6983 32.5869C81.1177 33.032 81.7123 33.212 82.3852 33.212V32.212C81.8821 32.212 81.5946 32.08 81.4261 31.9011C81.2523 31.7167 81.1212 31.3941 81.1212 30.84H80.1212ZM82.3852 33.212C83.7782 33.212 85.447 32.2975 87.3526 30.6813L86.7058 29.9187C84.8194 31.5185 83.3922 32.212 82.3852 32.212V33.212ZM87.3423 30.6898C88.8328 29.4926 90.1088 28.2176 91.1671 26.864L90.3793 26.248C89.3736 27.5344 88.1536 28.7554 86.7161 29.9102L87.3423 30.6898ZM91.1732 26.856C91.2683 26.7291 91.3384 26.6577 91.3825 26.6224C91.4035 26.6056 91.4098 26.6042 91.4015 26.6079C91.3925 26.6119 91.3613 26.624 91.3132 26.624V25.624C91.0772 25.624 90.8868 25.7384 90.7578 25.8416C90.6219 25.9503 90.494 26.0949 90.3732 26.256L91.1732 26.856ZM91.3132 26.624C91.3374 26.624 91.2622 26.6308 91.1768 26.5576C91.0766 26.4718 91.0652 26.3669 91.0652 26.34H92.0652C92.0652 26.1691 92.0117 25.9562 91.8276 25.7984C91.6582 25.6532 91.457 25.624 91.3132 25.624V26.624ZM91.0652 26.34C91.0652 26.3085 91.0733 26.3189 91.0408 26.3881C91.0107 26.452 90.9577 26.5412 90.8728 26.6579L91.6816 27.2461C91.7886 27.0988 91.8797 26.954 91.9456 26.8139C92.009 26.6791 92.0652 26.5155 92.0652 26.34H91.0652ZM90.8792 26.6493C89.6144 28.3123 88.0903 29.7902 86.3041 31.0829L86.8903 31.8931C88.752 30.5458 90.3479 28.9997 91.6752 27.2547L90.8792 26.6493ZM86.3041 31.0829C84.5074 32.3832 83.0658 32.968 81.9532 32.968V33.968C83.3846 33.968 85.039 33.2328 86.8903 31.8931L86.3041 31.0829ZM89.2572 23.1C89.2572 22.9319 89.2096 22.7645 89.104 22.6183C89.0022 22.4772 88.8667 22.3839 88.7327 22.322C88.4774 22.2042 88.1559 22.168 87.8212 22.168V23.168C88.1105 23.168 88.257 23.2038 88.3137 23.23C88.3357 23.2401 88.3172 23.2368 88.2933 23.2037C88.2658 23.1655 88.2572 23.1241 88.2572 23.1H89.2572ZM87.8212 22.168C87.401 22.168 86.9487 22.3282 86.485 22.5794C86.014 22.8345 85.4881 23.2074 84.9099 23.6872L85.5485 24.4568C86.0983 24.0006 86.5684 23.6715 86.9613 23.4586C87.3617 23.2418 87.6413 23.168 87.8212 23.168V22.168ZM84.9109 23.6864C83.3655 24.962 82.1495 26.3103 81.2751 27.7344L82.1273 28.2576C82.9328 26.9457 84.0689 25.678 85.5475 24.4576L84.9109 23.6864ZM81.5431 28.4703C81.7432 28.537 81.9531 28.568 82.1692 28.568V27.568C82.0492 27.568 81.9472 27.551 81.8593 27.5217L81.5431 28.4703ZM82.1692 28.568C83.2308 28.568 84.5452 28.0203 86.0732 27.0501L85.5372 26.2059C84.0412 27.1557 82.9315 27.568 82.1692 27.568V28.568ZM86.0749 27.049C87.6608 26.033 88.7251 24.8853 89.1595 23.5821L88.2108 23.2659C87.8772 24.2667 87.0216 25.255 85.5355 26.207L86.0749 27.049ZM89.1494 23.6097C89.2134 23.4499 89.2572 23.2775 89.2572 23.1H88.2572C88.2572 23.1145 88.253 23.1581 88.2209 23.2383L89.1494 23.6097ZM96.0233 22.812L96.429 23.1042L96.4525 23.0715L96.4705 23.0356L96.0233 22.812ZM92.1353 29.616L91.654 29.4806L91.1359 31.3224L92.4888 29.9696L92.1353 29.616ZM102.323 21.228V21.728H102.373L102.421 21.7183L102.323 21.228ZM102.143 24.396L102.525 24.719L102.532 24.7108L102.538 24.7024L102.143 24.396ZM99.4433 27.996L99.0232 27.7247L99.0193 27.731L99.4433 27.996ZM104.375 27.672L104.022 27.3184L104.013 27.3277L104.004 27.3373L104.375 27.672ZM104.627 27.348L104.243 27.0279L104.231 27.0422L104.22 27.0574L104.627 27.348ZM104.879 27.996L105.255 28.3262L105.256 28.3253L104.879 27.996ZM98.2193 26.664L97.7935 26.402L97.7892 26.4089L97.7852 26.4159L98.2193 26.664ZM100.523 22.92L100.949 23.182L100.227 22.5172L100.523 22.92ZM96.1673 26.88L96.5393 27.2141L96.542 27.211L96.1673 26.88ZM92.6753 31.02L92.2821 30.7111L92.2787 30.7155L92.6753 31.02ZM90.0113 32.604L89.5855 32.866L89.5975 32.8856L89.6113 32.904L90.0113 32.604ZM90.1913 29.688L89.7302 29.4946L89.7302 29.4946L90.1913 29.688ZM91.3793 26.988L91.8345 27.1949L91.0172 26.6432L91.3793 26.988ZM89.2193 29.256L89.5729 29.6097L89.5814 29.6008L89.2193 29.256ZM88.3193 29.292L87.9657 28.9384L87.9657 28.9384L88.3193 29.292ZM90.6233 26.736L91.0149 27.047L91.0205 27.0397L90.6233 26.736ZM94.4753 22.056L94.8574 22.3784L94.8667 22.3675L94.8753 22.356L94.4753 22.056ZM95.1593 22.124C95.4323 22.124 95.545 22.1794 95.5813 22.2077C95.5937 22.2173 95.6313 22.2433 95.6313 22.38H96.6313C96.6313 22.0127 96.5068 21.6607 96.1953 21.4183C95.9076 21.1946 95.5343 21.124 95.1593 21.124V22.124ZM95.6313 22.38C95.6313 22.4376 95.6175 22.5055 95.5761 22.5884L96.4705 23.0356C96.5731 22.8305 96.6313 22.6104 96.6313 22.38H95.6313ZM95.6175 22.5198C93.4565 25.5212 92.1121 27.8518 91.654 29.4806L92.6166 29.7514C93.0225 28.3082 94.27 26.1028 96.429 23.1042L95.6175 22.5198ZM92.4888 29.9696C95.2809 27.1775 97.5146 25.0938 99.1941 23.711C100.035 23.0189 100.726 22.5113 101.271 22.1794C101.843 21.8318 102.175 21.728 102.323 21.728V20.728C101.872 20.728 101.329 20.9737 100.752 21.3251C100.148 21.6922 99.4159 22.2331 98.5585 22.939C96.842 24.3522 94.5817 26.4625 91.7817 29.2624L92.4888 29.9696ZM102.421 21.7183C102.517 21.6991 102.592 21.692 102.647 21.692V20.692C102.511 20.692 102.369 20.7089 102.225 20.7377L102.421 21.7183ZM102.647 21.692C102.919 21.692 103.03 21.7539 103.07 21.79C103.1 21.8164 103.155 21.8847 103.155 22.092H104.155C104.155 21.6993 104.043 21.3176 103.736 21.044C103.441 20.7801 103.047 20.692 102.647 20.692V21.692ZM103.155 22.092C103.155 22.1436 103.145 22.2008 103.119 22.2663L104.048 22.6377C104.117 22.4632 104.155 22.2804 104.155 22.092H103.155ZM103.119 22.2663C103.132 22.2339 103.13 22.2477 103.054 22.3577C102.993 22.4466 102.904 22.5702 102.786 22.7304C102.549 23.0499 102.203 23.5025 101.748 24.0896L102.538 24.7024C102.995 24.1135 103.346 23.6541 103.589 23.3256C103.71 23.1618 103.807 23.0274 103.878 22.9243C103.935 22.8423 104.011 22.7301 104.048 22.6377L103.119 22.2663ZM101.762 24.073C100.694 25.3344 99.7809 26.5517 99.0233 27.7247L99.8633 28.2673C100.594 27.1363 101.48 25.9536 102.525 24.719L101.762 24.073ZM99.0193 27.731C98.2828 28.9093 97.8633 29.9669 97.8633 30.876H98.8633C98.8633 30.2491 99.1637 29.3867 99.8673 28.261L99.0193 27.731ZM97.8633 30.876C97.8633 31.2811 97.9053 31.6525 98.0312 31.9404C98.0966 32.09 98.1948 32.2402 98.3438 32.3537C98.4993 32.4722 98.6809 32.528 98.8673 32.528V31.528C98.8857 31.528 98.9202 31.5358 98.9498 31.5583C98.9728 31.5758 98.9659 31.582 98.9474 31.5396C98.9053 31.4435 98.8633 31.2389 98.8633 30.876H97.8633ZM98.8673 32.528C99.2397 32.528 99.6324 32.4022 100.03 32.2026C100.432 32.0007 100.871 31.7068 101.346 31.3312C102.296 30.5801 103.431 29.4677 104.747 28.0067L104.004 27.3373C102.704 28.7803 101.612 29.8459 100.726 30.5468C100.283 30.8972 99.9021 31.1478 99.5812 31.3089C99.2557 31.4723 99.0229 31.528 98.8673 31.528V32.528ZM104.729 28.0256C104.811 27.9433 104.918 27.8006 105.034 27.6386L104.22 27.0574C104.163 27.1383 104.116 27.2014 104.08 27.248C104.062 27.2713 104.047 27.2889 104.036 27.3018C104.025 27.3154 104.02 27.3198 104.022 27.3184L104.729 28.0256ZM105.011 27.6681C105.188 27.4558 105.321 27.3075 105.413 27.2156C105.46 27.1685 105.486 27.1469 105.494 27.1405C105.499 27.1372 105.488 27.1459 105.465 27.1573C105.45 27.1647 105.38 27.2 105.275 27.2V26.2C105.153 26.2 105.06 26.242 105.018 26.2629C104.968 26.2879 104.926 26.3168 104.894 26.3405C104.831 26.3881 104.767 26.4475 104.706 26.5084C104.582 26.6325 104.426 26.8082 104.243 27.0279L105.011 27.6681ZM105.275 27.2C105.212 27.2 105.147 27.1863 105.086 27.1571C105.026 27.1284 104.981 27.0908 104.951 27.057C104.895 26.9951 104.879 26.9393 104.877 26.9337C104.874 26.922 104.883 26.9528 104.883 27.06H105.883C105.883 26.9272 105.875 26.778 105.835 26.6463C105.816 26.5807 105.777 26.4799 105.694 26.388C105.599 26.2818 105.453 26.2 105.275 26.2V27.2ZM104.883 27.06C104.883 27.0671 104.879 27.1217 104.817 27.2369C104.757 27.349 104.656 27.4918 104.503 27.6667L105.256 28.3253C105.438 28.1162 105.59 27.911 105.698 27.711C105.803 27.5143 105.883 27.2929 105.883 27.06H104.883ZM104.504 27.6658C103.024 29.3483 101.774 30.5929 100.751 31.4128C100.239 31.8226 99.795 32.1175 99.4164 32.3082C99.0338 32.5008 98.7476 32.572 98.5433 32.572V33.572C98.963 33.572 99.4088 33.4317 99.8662 33.2013C100.328 32.969 100.831 32.6294 101.376 32.1932C102.465 31.3211 103.758 30.0277 105.255 28.3262L104.504 27.6658ZM98.5433 32.572C98.0456 32.572 97.7603 32.4371 97.5906 32.25C97.4124 32.0537 97.2793 31.7103 97.2793 31.128H96.2793C96.2793 31.8417 96.4401 32.4703 96.85 32.922C97.2682 33.3829 97.865 33.572 98.5433 33.572V32.572ZM97.2793 31.128C97.2793 29.9516 97.7169 28.551 98.6534 26.9121L97.7852 26.4159C96.8017 28.137 96.2793 29.7124 96.2793 31.128H97.2793ZM98.6451 26.926L100.949 23.182L100.097 22.658L97.7935 26.402L98.6451 26.926ZM100.227 22.5172C98.568 23.7371 97.0893 25.0809 95.7925 26.549L96.542 27.211C97.7892 25.7991 99.2146 24.5029 100.819 23.3228L100.227 22.5172ZM95.7953 26.5459C94.5168 27.9691 93.3456 29.3575 92.2821 30.7111L93.0684 31.3289C94.1169 29.9945 95.2738 28.6229 96.5392 27.2141L95.7953 26.5459ZM92.2787 30.7155C91.7649 31.3846 91.3658 31.877 91.0783 32.199C90.9333 32.3614 90.8262 32.4697 90.753 32.5337C90.7356 32.549 90.722 32.56 90.7119 32.5677C90.7015 32.5757 90.6973 32.5782 90.6986 32.5774C90.6989 32.5772 90.7117 32.5693 90.7349 32.5605C90.756 32.5525 90.8059 32.536 90.8753 32.536V33.536C91.0394 33.536 91.1661 33.4635 91.2185 33.4316C91.2873 33.3897 91.3528 33.3377 91.4115 33.2863C91.5304 33.1823 91.6692 33.0386 91.8243 32.865C92.1367 32.515 92.5536 31.9994 93.0719 31.3245L92.2787 30.7155ZM90.8753 32.536C90.6727 32.536 90.5329 32.4661 90.4113 32.304L89.6113 32.904C89.9217 33.3179 90.3579 33.536 90.8753 33.536V32.536ZM90.4371 32.342C90.3017 32.1219 90.2233 31.8443 90.2233 31.488H89.2233C89.2233 31.9957 89.3369 32.4621 89.5855 32.866L90.4371 32.342ZM90.2233 31.488C90.2233 31.1311 90.3493 30.604 90.6524 29.8814L89.7302 29.4946C89.4092 30.26 89.2233 30.9329 89.2233 31.488H90.2233ZM90.6524 29.8814C90.9619 29.1434 91.3557 28.2482 91.8345 27.1949L90.9241 26.7811C90.4429 27.8398 90.0447 28.7446 89.7302 29.4946L90.6524 29.8814ZM91.0172 26.6432L88.8572 28.9112L89.5814 29.6008L91.7414 27.3328L91.0172 26.6432ZM88.8657 28.9024C88.606 29.1622 88.4069 29.3463 88.2644 29.4624C88.1924 29.5211 88.1456 29.5535 88.12 29.5687C88.0716 29.5975 88.1308 29.548 88.2473 29.548V30.548C88.4237 30.548 88.5685 30.4655 88.6311 30.4283C88.7165 30.3775 88.8062 30.3109 88.8961 30.2376C89.0776 30.0897 89.3046 29.8778 89.5728 29.6096L88.8657 28.9024ZM88.2473 29.548C88.2524 29.548 88.348 29.5496 88.4388 29.6404C88.5297 29.7313 88.5313 29.8269 88.5313 29.832H87.5313C87.5313 29.9811 87.5689 30.1847 87.7317 30.3476C87.8946 30.5104 88.0982 30.548 88.2473 30.548V29.548ZM88.5313 29.832C88.5313 29.8459 88.5269 29.8393 88.5445 29.8063C88.563 29.7715 88.6009 29.7175 88.6728 29.6456L87.9657 28.9384C87.7353 29.1688 87.5313 29.4696 87.5313 29.832H88.5313ZM88.6728 29.6456C89.5717 28.7467 90.3529 27.8805 91.0148 27.0469L90.2317 26.4251C89.5977 27.2235 88.8429 28.0613 87.9657 28.9384L88.6728 29.6456ZM91.0205 27.0397C91.636 26.2348 92.9123 24.6838 94.8574 22.3784L94.0931 21.7336C92.1503 24.0362 90.8586 25.6052 90.2261 26.4323L91.0205 27.0397ZM94.8753 22.356C95.0458 22.1287 95.1434 22.124 95.1593 22.124V21.124C94.6951 21.124 94.3368 21.4073 94.0753 21.756L94.8753 22.356ZM113.279 21.408V21.908L113.286 21.908L113.279 21.408ZM118.463 21.336L118.74 20.92L118.611 20.8339L118.456 20.836L118.463 21.336ZM114.071 22.344L114.007 21.848L114.007 21.8481L114.071 22.344ZM109.247 23.028L109.103 22.5491L108.996 22.5811L108.913 22.6554L109.247 23.028ZM106.727 26.7L107.154 26.9595L107.156 26.9572L106.727 26.7ZM108.995 31.92L108.815 31.4533L108.815 31.4533L108.995 31.92ZM111.155 30.912L111.418 31.3371L111.42 31.336L111.155 30.912ZM115.475 27.204L115.121 26.8504L115.116 26.8558L115.111 26.8613L115.475 27.204ZM115.727 27.78L115.343 27.4599L115.339 27.4647L115.727 27.78ZM111.515 31.488L111.258 31.0592L111.253 31.0622L111.515 31.488ZM104.315 32.748L104.018 33.1505L104.03 33.1592L104.042 33.1672L104.315 32.748ZM104.927 26.736L105.373 26.9621L105.374 26.9596L104.927 26.736ZM106.907 22.884L107.346 23.1225L107.865 22.1674L106.802 22.3951L106.907 22.884ZM105.863 21.3V20.8H105.791L105.723 20.82L105.863 21.3ZM106.187 21.264V20.764H106.145L106.105 20.7708L106.187 21.264ZM108.275 21.264V21.764H108.518L108.669 21.5722L108.275 21.264ZM109.751 19.356L109.356 19.049L109.354 19.0518L109.751 19.356ZM112.019 18.348L111.784 18.7892L111.784 18.7892L112.019 18.348ZM110.831 21.372L110.457 21.0398L109.754 21.8309L110.812 21.8716L110.831 21.372ZM113.286 21.908L118.47 21.836L118.456 20.836L113.272 20.908L113.286 21.908ZM118.185 21.752C118.21 21.7685 118.206 21.7684 118.19 21.7526C118.182 21.7445 118.159 21.7205 118.135 21.681C118.113 21.6442 118.071 21.5609 118.071 21.444H119.071C119.071 21.3151 119.024 21.2183 118.993 21.1665C118.96 21.112 118.923 21.0715 118.897 21.0454C118.846 20.9936 118.787 20.9515 118.74 20.92L118.185 21.752ZM118.071 21.444C118.071 21.3051 118.132 21.2098 118.168 21.1666C118.202 21.1251 118.233 21.1068 118.233 21.1063C118.235 21.105 118.208 21.1211 118.127 21.1489C117.972 21.2023 117.717 21.2669 117.348 21.3407C116.616 21.4872 115.505 21.6564 114.007 21.848L114.134 22.84C115.637 22.6476 116.776 22.4748 117.544 22.3213C117.925 22.2451 118.232 22.1702 118.452 22.0946C118.559 22.0579 118.672 22.0121 118.768 21.9516C118.815 21.9214 118.881 21.8742 118.938 21.8043C118.998 21.7328 119.071 21.6099 119.071 21.444H118.071ZM114.007 21.8481C112.518 22.0402 111.37 22.1935 110.563 22.308C110.159 22.3651 109.839 22.4129 109.603 22.4512C109.383 22.487 109.201 22.5197 109.103 22.5491L109.39 23.5069C109.389 23.5074 109.396 23.5053 109.416 23.5007C109.436 23.4965 109.461 23.4912 109.495 23.4848C109.561 23.4722 109.65 23.4567 109.763 23.4383C109.99 23.4016 110.302 23.3549 110.703 23.298C111.504 23.1845 112.647 23.0318 114.135 22.8399L114.007 21.8481ZM108.913 22.6554C108.636 22.9038 108.282 23.3576 107.863 23.9691C107.434 24.5929 106.913 25.4185 106.298 26.4428L107.156 26.9572C107.765 25.9415 108.275 25.1351 108.687 24.5349C109.107 23.9224 109.402 23.5602 109.58 23.4006L108.913 22.6554ZM106.299 26.4405C105.68 27.4611 105.207 28.3578 104.888 29.1275C104.572 29.8893 104.391 30.5636 104.391 31.128H105.391C105.391 30.7564 105.516 30.2247 105.812 29.5105C106.105 28.8042 106.55 27.9549 107.154 26.9595L106.299 26.4405ZM104.391 31.128C104.391 31.7004 104.597 32.1984 105.056 32.5317C105.486 32.8434 106.069 32.96 106.727 32.96V31.96C106.16 31.96 105.826 31.8546 105.643 31.7223C105.491 31.6116 105.391 31.4436 105.391 31.128H104.391ZM106.727 32.96C107.394 32.96 108.217 32.7549 109.174 32.3867L108.815 31.4533C107.901 31.8051 107.212 31.96 106.727 31.96V32.96ZM109.174 32.3867C110.122 32.022 110.875 31.673 111.418 31.3371L110.892 30.4869C110.426 30.775 109.739 31.098 108.815 31.4533L109.174 32.3867ZM111.42 31.336C112.812 30.466 114.285 29.1981 115.839 27.5467L115.111 26.8613C113.593 28.4739 112.186 29.678 110.89 30.488L111.42 31.336ZM115.828 27.5576C115.989 27.3971 116.11 27.2911 116.194 27.2285C116.237 27.1972 116.26 27.1847 116.266 27.1818C116.278 27.1758 116.236 27.2 116.159 27.2V26.2C116.021 26.2 115.906 26.2452 115.831 26.2812C115.75 26.3203 115.673 26.3708 115.601 26.4235C115.458 26.5289 115.297 26.6749 115.121 26.8504L115.828 27.5576ZM116.159 27.2C116.089 27.2 116.006 27.1812 115.929 27.1295C115.854 27.0799 115.813 27.0189 115.793 26.9776C115.758 26.9091 115.767 26.8695 115.767 26.916H116.767C116.767 26.8185 116.757 26.6709 116.687 26.5304C116.648 26.4531 116.585 26.3651 116.483 26.2975C116.379 26.2278 116.264 26.2 116.159 26.2V27.2ZM115.767 26.916C115.767 26.8575 115.783 26.8322 115.772 26.8587C115.763 26.879 115.744 26.9168 115.708 26.975C115.635 27.0914 115.516 27.2516 115.343 27.4599L116.111 28.1001C116.297 27.8764 116.449 27.6766 116.556 27.505C116.609 27.4192 116.658 27.331 116.695 27.2433C116.729 27.1618 116.767 27.0465 116.767 26.916H115.767ZM115.339 27.4647C114.124 28.9595 112.763 30.1557 111.258 31.0593L111.772 31.9167C113.386 30.9483 114.833 29.6725 116.115 28.0953L115.339 27.4647ZM111.253 31.0622C109.437 32.1795 107.739 32.716 106.151 32.716V33.716C107.971 33.716 109.849 33.1005 111.777 31.9138L111.253 31.0622ZM106.151 32.716C105.475 32.716 104.965 32.5744 104.587 32.3288L104.042 33.1672C104.624 33.5456 105.339 33.716 106.151 33.716V32.716ZM104.611 32.3455C104.354 32.1555 104.131 31.7074 104.131 30.768H103.131C103.131 31.7966 103.364 32.6685 104.018 33.1505L104.611 32.3455ZM104.131 30.768C104.131 29.9065 104.517 28.6501 105.373 26.9621L104.481 26.5099C103.609 28.2299 103.131 29.6615 103.131 30.768H104.131ZM105.374 26.9596C106.238 25.2327 106.894 23.9548 107.346 23.1225L106.467 22.6455C106.007 23.4932 105.344 24.7833 104.48 26.5124L105.374 26.9596ZM106.802 22.3951C106.487 22.4626 106.236 22.492 106.043 22.492V23.492C106.33 23.492 106.655 23.4494 107.012 23.3729L106.802 22.3951ZM106.043 22.492C105.747 22.492 105.618 22.4312 105.571 22.3933C105.545 22.3728 105.499 22.3281 105.499 22.164H104.499C104.499 22.5519 104.627 22.9212 104.949 23.1767C105.249 23.4148 105.642 23.492 106.043 23.492V22.492ZM105.499 22.164C105.499 22.0923 105.518 22.0456 105.568 21.9956C105.631 21.9325 105.76 21.8508 106.003 21.78L105.723 20.82C105.39 20.9172 105.086 21.0635 104.861 21.2884C104.623 21.5264 104.499 21.8276 104.499 22.164H105.499ZM105.863 21.8C105.978 21.8 106.12 21.7821 106.269 21.7572L106.105 20.7708C105.966 20.7939 105.892 20.8 105.863 20.8V21.8ZM106.187 21.764H108.275V20.764H106.187V21.764ZM108.669 21.5722C109.102 21.0185 109.595 20.3812 110.148 19.6602L109.354 19.0518C108.803 19.7708 108.312 20.4055 107.881 20.9558L108.669 21.5722ZM110.145 19.663C110.476 19.2386 110.74 18.9375 110.941 18.747C111.042 18.6513 111.115 18.5952 111.162 18.5658C111.219 18.5303 111.197 18.56 111.119 18.56V17.56C110.921 17.56 110.751 17.6437 110.635 17.7162C110.508 17.7948 110.38 17.9007 110.253 18.021C109.998 18.2625 109.698 18.6094 109.356 19.049L110.145 19.663ZM111.119 18.56C111.238 18.56 111.452 18.6122 111.784 18.7892L112.254 17.9068C111.866 17.6998 111.48 17.56 111.119 17.56V18.56ZM111.784 18.7892C111.926 18.8649 111.998 18.9302 112.031 18.9728C112.059 19.008 112.059 19.0239 112.059 19.032H113.059C113.059 18.4948 112.68 18.1341 112.254 17.9068L111.784 18.7892ZM112.059 19.032C112.059 18.9585 112.083 18.9575 112.013 19.0852C111.956 19.1883 111.863 19.3312 111.725 19.518C111.45 19.8899 111.03 20.3958 110.457 21.0398L111.205 21.7042C111.784 21.0522 112.228 20.5201 112.529 20.112C112.679 19.9088 112.801 19.7262 112.889 19.5683C112.962 19.435 113.059 19.2375 113.059 19.032H112.059ZM110.812 21.8716C111.445 21.896 112.268 21.908 113.279 21.908V20.908C112.274 20.908 111.465 20.896 110.85 20.8724L110.812 21.8716Z" fill="white"/>
</svg>
