<svg width="50" height="50" viewBox="0 0 50 50" fill="none" xmlns="http://www.w3.org/2000/svg">
<path d="M12.8571 21.2204C13.0058 21.7302 13.2122 22.2218 13.4731 22.6831L12.7297 23.6207C12.4869 23.9272 12.5142 24.3642 12.7873 24.6404L14.0679 25.9209C14.344 26.1971 14.781 26.2213 15.0875 25.9786L16.0191 25.2412C16.4986 25.5173 17.0084 25.7328 17.5394 25.8845L17.679 27.0831C17.7245 27.4716 18.0523 27.7629 18.4407 27.7629H20.2523C20.6408 27.7629 20.9685 27.4715 21.014 27.0831L21.1475 25.927C21.718 25.7783 22.2642 25.5568 22.7771 25.2685L23.6783 25.9816C23.9848 26.2244 24.4218 26.1971 24.698 25.9239L25.9785 24.6434C26.2547 24.3672 26.279 23.9302 26.0362 23.6238L25.3352 22.7346C25.6265 22.2309 25.8541 21.6938 26.0058 21.1324L27.0861 21.008C27.4746 20.9624 27.7659 20.6347 27.7659 20.2463V18.4347C27.7659 18.0462 27.4746 17.7185 27.0861 17.673L26.021 17.5486C25.8753 16.9932 25.6569 16.4622 25.3777 15.9645L26.0332 15.1361C26.276 14.8296 26.2486 14.3926 25.9755 14.1165L24.698 12.8389C24.4218 12.5628 23.9849 12.5385 23.6784 12.7813L22.8742 13.4185C22.3523 13.1121 21.7939 12.8784 21.2082 12.7206L21.0869 11.6797C21.0413 11.2913 20.7136 11 20.3252 11H18.5136C18.1251 11 17.7974 11.2913 17.7519 11.6797L17.6305 12.7206C17.0297 12.8814 16.4561 13.1242 15.922 13.4428L15.0875 12.7813C14.7811 12.5385 14.3441 12.5658 14.0679 12.8389L12.7874 14.1195C12.5112 14.3957 12.4869 14.8326 12.7297 15.1391L13.4276 16.0222C13.1485 16.5259 12.936 17.063 12.7965 17.6214L11.6797 17.7489C11.2913 17.7944 11 18.1221 11 18.5105V20.3222C11 20.7106 11.2913 21.0383 11.6797 21.0838L12.8571 21.2204ZM19.4209 16.3196C21.0717 16.3196 22.416 17.6639 22.416 19.3147C22.416 20.9655 21.0717 22.3098 19.4209 22.3098C17.7701 22.3098 16.4258 20.9655 16.4258 19.3147C16.4258 17.6639 17.7701 16.3196 19.4209 16.3196Z" fill="#FFCC73"/>
<path d="M37.3307 21.6665L36.3748 20.8593C36.0805 20.6104 35.6465 20.6226 35.3674 20.8866L34.8394 21.3812C34.3933 21.1658 33.9199 21.014 33.4313 20.926L33.2827 20.1977C33.2068 19.8215 32.8579 19.5605 32.4755 19.5908L31.2283 19.697C30.8459 19.7304 30.5455 20.043 30.5333 20.4284L30.5091 21.1688C30.0296 21.3418 29.5775 21.5785 29.1648 21.8759L28.5336 21.4571C28.2119 21.2447 27.784 21.3054 27.5352 21.5997L26.728 22.5617C26.4792 22.856 26.4913 23.29 26.7553 23.5691L27.3076 24.1578C27.1164 24.5887 26.9798 25.0409 26.901 25.5052L26.112 25.666C25.7357 25.7418 25.4747 26.0908 25.5051 26.4732L25.6113 27.7204C25.6447 28.1028 25.9572 28.4032 26.3426 28.4153L27.1953 28.4426C27.3502 28.8492 27.5534 29.2347 27.7992 29.5957L27.3228 30.3149C27.1104 30.6366 27.1711 31.0645 27.4654 31.3133L28.4213 32.1205C28.7157 32.3693 29.1496 32.3572 29.4288 32.0932L30.0539 31.5075C30.4636 31.6987 30.8945 31.8413 31.3375 31.9263L31.5105 32.782C31.5864 33.1583 31.9353 33.4193 32.3177 33.3889L33.5649 33.2827C33.9472 33.2493 34.2477 32.9368 34.2598 32.5514L34.2871 31.7138C34.7423 31.553 35.1732 31.3345 35.5707 31.0645L36.2596 31.5196C36.5812 31.7321 37.0091 31.6714 37.2579 31.377L38.0651 30.4211C38.3139 30.1268 38.3018 29.6928 38.0378 29.4137L37.4825 28.825C37.6858 28.3941 37.8345 27.9389 37.9194 27.4715L38.6781 27.3168C39.0544 27.2409 39.3153 26.8919 39.285 26.5096L39.1788 25.2624C39.1454 24.88 38.8329 24.5796 38.4475 24.5674L37.6858 24.5432C37.528 24.1001 37.3155 23.6814 37.0516 23.2929L37.4673 22.6678C37.6858 22.3462 37.6251 21.9153 37.3307 21.6665ZM32.6302 28.8765C31.2829 28.9919 30.0933 27.9874 29.9811 26.6401C29.8657 25.2928 30.8702 24.1032 32.2175 23.9909C33.5648 23.8756 34.7544 24.8801 34.8667 26.2274C34.982 27.5748 33.9775 28.7643 32.6302 28.8765Z" fill="#FFCC73"/>
<path d="M17.2209 32.2328C16.8386 32.2723 16.5442 32.5939 16.5412 32.9793L16.5321 33.7471C16.526 34.1324 16.8113 34.4602 17.1936 34.5088L17.758 34.5816C17.8521 34.9245 17.9856 35.2522 18.1586 35.5618L17.7945 36.0109C17.5517 36.3113 17.5699 36.7422 17.84 37.0183L18.3771 37.5676C18.6472 37.8437 19.0781 37.8741 19.3846 37.6374L19.8367 37.2884C20.1553 37.4766 20.4922 37.6253 20.8441 37.7284L20.9048 38.3111C20.9443 38.6934 21.266 38.9878 21.6513 38.9908L22.4191 38.9999C22.8045 39.006 23.1322 38.7207 23.1808 38.3384L23.2506 37.7861C23.633 37.692 23.9971 37.5494 24.343 37.3612L24.7679 37.7041C25.0683 37.9469 25.4992 37.9287 25.7754 37.6586L26.3246 37.1215C26.6008 36.8515 26.6311 36.4205 26.3944 36.114L26.0697 35.6922C26.27 35.3584 26.4248 35.0034 26.531 34.6301L27.0347 34.5785C27.4171 34.5391 27.7114 34.2174 27.7144 33.832L27.7235 33.0643C27.7296 32.6789 27.4444 32.3511 27.062 32.3026L26.5704 32.2389C26.4763 31.8686 26.3368 31.5106 26.1547 31.1768L26.4612 30.8005C26.7039 30.5001 26.6857 30.0691 26.4157 29.793L25.8786 29.2437C25.6085 28.9676 25.1775 28.9372 24.8711 29.174L24.5039 29.4562C24.1579 29.2468 23.7877 29.0859 23.3993 28.9767L23.3507 28.5003C23.3113 28.1179 22.9896 27.8236 22.6042 27.8205L21.8365 27.8114C21.4511 27.8054 21.1234 28.0906 21.0748 28.473L21.0141 28.9464C20.6136 29.0495 20.2282 29.2074 19.8701 29.4137L19.4908 29.1042C19.1903 28.8614 18.7594 28.8796 18.4833 29.1497L17.931 29.6899C17.6548 29.9599 17.6245 30.3908 17.8612 30.6973L18.1859 31.1161C17.9977 31.4499 17.849 31.8049 17.7519 32.1782L17.2209 32.2328ZM22.1764 31.3649C23.2779 31.377 24.1609 32.2844 24.1488 33.3859C24.1367 34.4875 23.2293 35.3705 22.1278 35.3584C21.0262 35.3463 20.1432 34.4389 20.1553 33.3374C20.1675 32.2358 21.0748 31.3528 22.1764 31.3649Z" fill="#FFCC73"/>
</svg>
